<svg width="24" height="24" viewBox="0 0 24 24" fill="none" xmlns="http://www.w3.org/2000/svg">
<path fill-rule="evenodd" clip-rule="evenodd" d="M12 2C14.173 2 16.1856 2.69404 17.826 3.87156L18.0705 3.55643L18.1793 3.42252C18.6053 2.90707 19.3947 2.90706 19.8207 3.42251L20.0663 3.73042L20.341 4.09748L20.5514 4.39527C20.5876 4.44801 20.6244 4.50221 20.6615 4.55775L20.8863 4.90595L20.9988 5.09011C21.4581 5.85716 22 6.95221 22 8C22 8.4855 21.8776 8.96287 21.6553 9.38841C21.8802 10.2219 22 11.0977 22 12C22 17.5228 17.5228 22 12 22C6.47715 22 2 17.5228 2 12C2 6.47715 6.47715 2 12 2ZM12 4C7.58172 4 4 7.58172 4 12C4 16.4183 7.58172 20 12 20C16.4183 20 20 16.4183 20 12C20 11.6123 19.9725 11.2314 19.9194 10.8591C19.6344 10.9499 19.3265 11 19 11C17.1796 11 16 9.48507 16 8C16 7.38606 16.1839 6.7762 16.4033 6.254C16.5042 6.01393 16.6184 5.77877 16.7385 5.55361C15.412 4.57657 13.7742 4 12 4ZM12 14C12.5523 14 13 14.4477 13 15C13 15.5523 12.5523 16 12 16H9C8.44772 16 8 15.5523 8 15C8 14.4477 8.44772 14 9 14H12ZM9 10C9.55228 10 10 10.4477 10 11C10 11.5523 9.55228 12 9 12H6C5.44772 12 5 11.5523 5 11C5 10.4477 5.44772 10 6 10H9ZM15 10C15.5523 10 16 10.4477 16 11C16 11.5523 15.5523 12 15 12H12C11.4477 12 11 11.5523 11 11C11 10.4477 11.4477 10 12 10H15ZM19 5.67108L18.8763 5.8604C18.6394 6.23117 18.4124 6.63548 18.2472 7.0287C18.0775 7.43258 18 7.76188 18 8C18 8.51493 18.414 9 19 9C19.3409 9 19.6036 8.84876 19.7792 8.62333C19.9239 8.43746 20 8.21095 20 8C20 7.53806 19.7214 6.84987 19.2829 6.11762C19.1893 5.9613 19.0936 5.8114 19 5.67108Z" fill="white"/>
</svg>
