<svg xmlns="http://www.w3.org/2000/svg" width="48.059" height="46.618" viewBox="0 0 48.059 46.618">
  <g id="グループ_47" data-name="グループ 47" transform="translate(0 0)">
    <g id="グループ_44" data-name="グループ 44">
      <path id="パス_13" data-name="パス 13" d="M4.309-13.321,33.677-3.428A2.342,2.342,0,0,1,36.1-1.18V14.56a2.342,2.342,0,0,1-2.426,2.249H.383A2.065,2.065,0,0,1-1.711,14.56v-16.4C-1.119-3.443,3.462-12.11,4.309-13.321Z" transform="translate(5.746 15.624)" fill="#fff" stroke="#707070" stroke-linejoin="round" stroke-width="3"/>
      <g id="合体_2" data-name="合体 2" transform="translate(0 0)" fill="#707070">
        <path d="M 46.18045806884766 18.27529525756836 C 46.05420684814453 18.27280044555664 45.92207336425781 18.26908874511719 45.78564071655273 18.2652530670166 L 45.76209259033203 18.26459312438965 C 45.52174377441406 18.25739288330078 45.23834228515625 18.24963188171387 44.95194244384766 18.24963188171387 C 44.90265274047852 18.24963188171387 44.85336303710938 18.24985313415527 44.80410003662109 18.25033760070801 L 23.21833229064941 17.80801200866699 L 23.20297241210938 17.80770301818848 L 23.18760108947754 17.80770301818848 C 22.54571342468262 17.80770301818848 22.18216323852539 17.53355598449707 21.16385650634766 16.27000999450684 C 20.70381355285645 15.62064647674561 14.52437210083008 6.898661136627197 11.91298198699951 3.23705267906189 L 10.78868579864502 1.660609006881714 C 10.97824382781982 1.588701844215393 11.33890724182129 1.500152826309204 11.96528244018555 1.500152826309204 C 12.02052211761475 1.500152826309204 12.07659244537354 1.500842809677124 12.13397216796875 1.502252817153931 L 12.1523323059082 1.502702832221985 L 12.17070198059082 1.502702832221985 L 33.99300384521484 1.502702832221985 C 35.10573196411133 1.502702832221985 35.36973190307617 1.575632810592651 35.89714050292969 2.413072824478149 L 35.90248107910156 2.421532869338989 L 35.90792083740234 2.429932832717896 L 46.00052261352539 17.99093246459961 L 46.00232315063477 17.99370193481445 L 46.00413131713867 17.99646186828613 C 46.07040786743164 18.09766960144043 46.12889862060547 18.19048309326172 46.18045806884766 18.27529525756836 Z" stroke="none"/>
        <path d="M 43.38901138305664 16.72102928161621 L 34.62789154052734 3.212442874908447 C 34.57320022583008 3.125595569610596 34.52894592285156 3.062843561172485 34.4954833984375 3.018760442733765 C 34.40190505981445 3.010499954223633 34.24642944335938 3.002702713012695 33.99300384521484 3.002702713012695 L 13.58788681030273 3.002702713012695 C 16.3508358001709 6.882273197174072 21.76446342468262 14.5230188369751 22.36124420166016 15.36538124084473 C 22.57656288146973 15.63243961334229 22.99452972412109 16.14353942871094 23.20674133300781 16.30770301818848 L 23.24906158447266 16.3083324432373 L 43.38901138305664 16.72102928161621 M 46.45835113525391 19.77839279174805 C 46.22505187988281 19.77839279174805 45.97650146484375 19.77120208740234 45.72000122070312 19.76400184631348 C 45.41940689086914 19.75500297546387 45.10710525512695 19.74690055847168 44.79660034179688 19.75050354003906 L 23.18760108947754 19.30770301818848 C 21.76470184326172 19.30770301818848 21.00690269470215 18.46890258789062 19.96650123596191 17.17470359802246 C 19.96650123596191 17.17470359802246 13.42113208770752 7.935072898864746 10.69174194335938 4.108022689819336 L 2.41470193862915 19.04040336608887 C 2.07000207901001 19.66230392456055 1.286102294921875 19.88730430603027 0.6642020344734192 19.5426025390625 C 0.04140202328562737 19.19790267944336 -0.182697981595993 18.41400337219238 0.1620020270347595 17.79120254516602 L 9.196561813354492 1.493082761764526 C 9.217302322387695 0.6310330033302307 10.14813995361328 -0.04683752357959747 12.17070198059082 0.002702772850170732 L 33.99300384521484 0.002702772850170732 C 35.41590118408203 0.002702772850170732 36.26460266113281 0.1818027794361115 37.16640090942383 1.613702774047852 L 47.25900268554688 17.17470359802246 C 48.77978134155273 19.49700355529785 47.91717147827148 19.77839279174805 46.45835113525391 19.77839279174805 Z" stroke="none" fill="#707070"/>
      </g>
      <path id="合体_3" data-name="合体 3" d="M0,14.6V4.61H.013C.181,2.031,2.033,0,4.293,0S8.4,2.031,8.573,4.61h.012V14.6Z" transform="translate(7.878 17.174)" fill="#707070"/>
      <g id="長方形_33" data-name="長方形 33" transform="translate(7.878 12.882)" fill="#fff" stroke="#707070" stroke-width="1">
        <rect width="8.586" height="3.434" rx="1" stroke="none"/>
        <rect x="0.5" y="0.5" width="7.586" height="2.434" rx="0.5" fill="none"/>
      </g>
    </g>
    <path id="パス_27" data-name="パス 27" d="M2.48.112A3.009,3.009,0,0,1,1.32-.116,3.008,3.008,0,0,1,.352-.752L.96-1.48a2.621,2.621,0,0,0,.724.488A1.944,1.944,0,0,0,2.5-.808a1.2,1.2,0,0,0,.764-.208.663.663,0,0,0,.26-.544.627.627,0,0,0-.12-.4,1,1,0,0,0-.324-.26q-.2-.108-.468-.22L1.8-2.784a2.793,2.793,0,0,1-.564-.32A1.64,1.64,0,0,1,.78-3.612,1.425,1.425,0,0,1,.6-4.344,1.485,1.485,0,0,1,.856-5.2a1.773,1.773,0,0,1,.708-.6,2.319,2.319,0,0,1,1.028-.22,2.575,2.575,0,0,1,1,.2,2.46,2.46,0,0,1,.824.552l-.544.672a2.383,2.383,0,0,0-.588-.376A1.7,1.7,0,0,0,2.592-5.1a1.089,1.089,0,0,0-.664.184.594.594,0,0,0-.248.5.565.565,0,0,0,.132.384,1.029,1.029,0,0,0,.344.252q.212.1.46.2l.792.328a2.546,2.546,0,0,1,.62.356,1.525,1.525,0,0,1,.42.512,1.606,1.606,0,0,1,.152.732,1.618,1.618,0,0,1-.252.88,1.784,1.784,0,0,1-.728.64A2.507,2.507,0,0,1,2.48.112Zm5.008,0a2.222,2.222,0,0,1-1.112-.28,2.048,2.048,0,0,1-.788-.8A2.511,2.511,0,0,1,5.3-2.216a2.589,2.589,0,0,1,.172-.972,2.307,2.307,0,0,1,.464-.736,2.02,2.02,0,0,1,.656-.468,1.86,1.86,0,0,1,.756-.16,1.8,1.8,0,0,1,1.008.268,1.663,1.663,0,0,1,.616.744,2.725,2.725,0,0,1,.208,1.1q0,.152-.012.284a1.3,1.3,0,0,1-.036.22H6.32a1.482,1.482,0,0,0,.216.664,1.218,1.218,0,0,0,.452.42A1.325,1.325,0,0,0,7.624-.7a1.635,1.635,0,0,0,.528-.084,2.463,2.463,0,0,0,.5-.236l.36.656a3.086,3.086,0,0,1-.7.344A2.472,2.472,0,0,1,7.488.112ZM6.3-2.648H8.28a1.246,1.246,0,0,0-.232-.8.826.826,0,0,0-.688-.292.961.961,0,0,0-.472.124,1.074,1.074,0,0,0-.38.364A1.438,1.438,0,0,0,6.3-2.648Zm5.3,2.76a1.464,1.464,0,0,1-.82-.2A1.161,1.161,0,0,1,10.34-.66,2.343,2.343,0,0,1,10.2-1.5v-2.1H9.568v-.784l.7-.048.112-1.216h.872V-4.44h1.128v.832H11.248V-1.5a.917.917,0,0,0,.156.58.571.571,0,0,0,.476.2.945.945,0,0,0,.236-.032,1.64,1.64,0,0,0,.22-.072l.176.768q-.176.056-.4.112A2.1,2.1,0,0,1,11.608.112Zm3.048,0a1.464,1.464,0,0,1-.82-.2,1.161,1.161,0,0,1-.448-.568,2.343,2.343,0,0,1-.14-.844v-2.1h-.632v-.784l.7-.048.112-1.216H14.3V-4.44h1.128v.832H14.3V-1.5a.917.917,0,0,0,.156.58.571.571,0,0,0,.476.2.945.945,0,0,0,.236-.032,1.64,1.64,0,0,0,.22-.072l.176.768q-.176.056-.4.112A2.1,2.1,0,0,1,14.656.112ZM16.36,0V-4.44h1.048V0Zm.528-5.216a.625.625,0,0,1-.456-.164.582.582,0,0,1-.168-.436.571.571,0,0,1,.168-.428.625.625,0,0,1,.456-.164.631.631,0,0,1,.448.164.558.558,0,0,1,.176.428.568.568,0,0,1-.176.436A.631.631,0,0,1,16.888-5.216ZM18.728,0V-4.44h.856l.088.6h.016a3.258,3.258,0,0,1,.648-.5,1.558,1.558,0,0,1,.808-.208,1.185,1.185,0,0,1,1.04.464,2.234,2.234,0,0,1,.328,1.3V0H21.464V-2.648a1.363,1.363,0,0,0-.164-.776.606.606,0,0,0-.524-.224.926.926,0,0,0-.508.14,3.2,3.2,0,0,0-.492.4V0Zm6.6,1.96a3.249,3.249,0,0,1-.948-.128,1.469,1.469,0,0,1-.66-.384.9.9,0,0,1-.24-.64.922.922,0,0,1,.164-.524,1.368,1.368,0,0,1,.476-.42v-.04a.99.99,0,0,1-.284-.292A.819.819,0,0,1,23.72-.92a.836.836,0,0,1,.148-.476,1.2,1.2,0,0,1,.348-.348v-.032a1.69,1.69,0,0,1-.416-.48,1.317,1.317,0,0,1-.184-.7,1.5,1.5,0,0,1,.248-.872,1.568,1.568,0,0,1,.648-.544,2.024,2.024,0,0,1,.856-.184,1.97,1.97,0,0,1,.368.032,1.814,1.814,0,0,1,.3.08h1.592v.776h-.8a1.069,1.069,0,0,1,.172.32,1.263,1.263,0,0,1,.068.424,1.472,1.472,0,0,1-.224.828,1.389,1.389,0,0,1-.612.512,2.1,2.1,0,0,1-.86.172,1.62,1.62,0,0,1-.284-.028,1.819,1.819,0,0,1-.308-.084.741.741,0,0,0-.156.176.462.462,0,0,0-.06.248.331.331,0,0,0,.156.284A1.053,1.053,0,0,0,25.28-.7h.792a2.3,2.3,0,0,1,1.208.26A.912.912,0,0,1,27.7.392a1.234,1.234,0,0,1-.288.8,1.927,1.927,0,0,1-.824.564A3.463,3.463,0,0,1,25.328,1.96Zm.04-4.024a.735.735,0,0,0,.392-.108.772.772,0,0,0,.28-.3,1,1,0,0,0,.1-.476,1,1,0,0,0-.1-.476.725.725,0,0,0-.276-.3.773.773,0,0,0-.4-.1.742.742,0,0,0-.38.1.73.73,0,0,0-.276.292,1,1,0,0,0-.1.48,1,1,0,0,0,.1.476.783.783,0,0,0,.276.3A.7.7,0,0,0,25.368-2.064ZM25.48,1.28a1.82,1.82,0,0,0,.636-.1,1.06,1.06,0,0,0,.416-.26A.508.508,0,0,0,26.68.568a.354.354,0,0,0-.2-.356A1.423,1.423,0,0,0,25.9.12H25.3q-.176,0-.324-.012A1.707,1.707,0,0,1,24.7.064a.835.835,0,0,0-.256.28.648.648,0,0,0-.08.3.514.514,0,0,0,.3.464A1.69,1.69,0,0,0,25.48,1.28Z" transform="translate(8.343 44.658)" fill="#707070"/>
  </g>
</svg>
