<svg width="48" height="48" viewBox="0 0 48 48" fill="none" xmlns="http://www.w3.org/2000/svg">
<g clip-path="url(#clip0_155_3488)">
<path d="M12.0472 11.4026L37.2198 19.8823C37.7504 19.8635 38.2669 20.0557 38.6561 20.4169C39.0453 20.778 39.2756 21.2786 39.2966 21.8092V35.3006C39.2759 35.8317 39.0453 36.333 38.6555 36.6944C38.2656 37.0558 37.7484 37.2478 37.2172 37.2283H8.68205C8.43364 37.2328 8.18707 37.1849 7.95838 37.0878C7.72969 36.9907 7.52401 36.8466 7.3547 36.6647C7.1854 36.4829 7.05628 36.2675 6.97573 36.0324C6.89518 35.7974 6.86502 35.548 6.88719 35.3006V21.2434C7.39462 19.8694 11.3212 12.4406 12.0472 11.4026Z" fill="white" stroke="#707070" stroke-width="3" stroke-linejoin="round"/>
<path d="M43.0121 25.0931C42.9039 25.091 42.7906 25.0878 42.6737 25.0845L42.6535 25.0839C42.4475 25.0778 42.2045 25.0711 41.9591 25.0711C41.9168 25.0711 41.8746 25.0713 41.8323 25.0717L23.3303 24.6926L23.3171 24.6923H23.3039C22.7537 24.6923 22.4421 24.4573 21.5693 23.3743C21.175 22.8177 15.8783 15.3417 13.64 12.2032L12.6763 10.852C12.8387 10.7903 13.1479 10.7144 13.6848 10.7144C13.7321 10.7144 13.7802 10.715 13.8294 10.7162L13.8451 10.7166H13.8609H32.5657C33.5195 10.7166 33.7457 10.7791 34.1978 11.4969L34.2024 11.5042L34.207 11.5114L42.8578 24.8494L42.8594 24.8517L42.8609 24.8541C42.9177 24.9409 42.9679 25.0204 43.0121 25.0931Z" fill="#707070"/>
<path d="M40.6193 23.7609L33.1098 12.1821C33.0629 12.1077 33.025 12.0539 32.9963 12.0161C32.9161 12.009 32.7828 12.0023 32.5656 12.0023H15.0755C17.4437 15.3277 22.084 21.8769 22.5955 22.5989C22.7801 22.8278 23.1383 23.2659 23.3202 23.4066L23.3565 23.4072L40.6193 23.7609ZM43.2502 26.3815C43.0502 26.3815 42.8372 26.3753 42.6173 26.3692C42.3597 26.3614 42.092 26.3545 41.8258 26.3576L23.3038 25.978C22.0842 25.978 21.4347 25.2591 20.5429 24.1498C20.5429 24.1498 14.9326 16.2301 12.5931 12.9497L5.49849 25.7489C5.20303 26.282 4.53112 26.4748 3.99806 26.1794C3.46423 25.8839 3.27215 25.212 3.5676 24.6782L11.3115 10.7084C11.3293 9.96947 12.1271 9.38844 13.8608 9.4309H32.5656C33.7852 9.4309 34.5127 9.58441 35.2857 10.8118L43.9365 24.1498C45.24 26.1403 44.5006 26.3815 43.2502 26.3815Z" fill="#707070"/>
<path d="M10.1814 36.6635V28.1006H10.1925C10.3365 25.89 11.924 24.1492 13.8611 24.1492C15.7983 24.1492 17.3814 25.89 17.5297 28.1006H17.54V36.6635H10.1814Z" fill="#707070"/>
<path d="M16.6837 20.4703H11.0385C10.5652 20.4703 10.1814 20.854 10.1814 21.3274V22.5566C10.1814 23.0299 10.5652 23.4137 11.0385 23.4137H16.6837C17.1571 23.4137 17.5408 23.0299 17.5408 22.5566V21.3274C17.5408 20.854 17.1571 20.4703 16.6837 20.4703Z" fill="white"/>
<path d="M16.6836 20.8989H11.0384C10.8017 20.8989 10.6099 21.0907 10.6099 21.3274V22.5566C10.6099 22.7933 10.8017 22.9852 11.0384 22.9852H16.6836C16.9203 22.9852 17.1121 22.7933 17.1121 22.5566V21.3274C17.1121 21.0907 16.9203 20.8989 16.6836 20.8989Z" stroke="#707070"/>
</g>
<defs>
<clipPath id="clip0_155_3488">
<rect width="41.1926" height="29.0846" fill="white" transform="translate(3.42871 9.42859)"/>
</clipPath>
</defs>
</svg>
