<svg xmlns="http://www.w3.org/2000/svg" width="48.059" height="46.57" viewBox="0 0 48.059 46.57">
  <g id="グループ_70" data-name="グループ 70" transform="translate(-301.657 -858.342)">
    <g id="グループ_44" data-name="グループ 44" transform="translate(-6.168 -5.655)">
      <path id="パス_13" data-name="パス 13" d="M4.309-13.321,33.677-3.428A2.342,2.342,0,0,1,36.1-1.18V14.56a2.342,2.342,0,0,1-2.426,2.249H.383A2.065,2.065,0,0,1-1.711,14.56v-16.4C-1.119-3.443,3.462-12.11,4.309-13.321Z" transform="translate(313.571 879.621)" fill="#fff" stroke="#ba1a1a" stroke-linejoin="round" stroke-width="3"/>
      <g id="合体_2" data-name="合体 2" transform="translate(307.825 863.997)" fill="#e58787">
        <path d="M 46.18045806884766 18.27529525756836 C 46.05420684814453 18.27280044555664 45.92206954956055 18.26908874511719 45.78564071655273 18.2652530670166 L 45.76209259033203 18.26459312438965 C 45.52174377441406 18.25739288330078 45.23834228515625 18.24963188171387 44.95194244384766 18.24963188171387 C 44.90265274047852 18.24963188171387 44.85336303710938 18.24985313415527 44.80410003662109 18.25033760070801 L 23.21833229064941 17.80801200866699 L 23.20297241210938 17.80770301818848 L 23.18760108947754 17.80770301818848 C 22.54500007629395 17.80770301818848 22.18136787414551 17.53346824645996 21.16401481628418 16.27023506164551 C 20.70535850524902 15.62282752990723 14.52470111846924 6.899123191833496 11.91298198699951 3.23705267906189 L 10.7886905670166 1.660615921020508 C 10.97824573516846 1.588706016540527 11.33890724182129 1.500152826309204 11.96528148651123 1.500152826309204 C 12.02053165435791 1.500152826309204 12.07659149169922 1.500842809677124 12.13397216796875 1.502252817153931 L 12.1523323059082 1.502702832221985 L 12.17070198059082 1.502702832221985 L 33.99300003051758 1.502702832221985 C 35.10545349121094 1.502702832221985 35.36933135986328 1.575592756271362 35.89588165283203 2.412502765655518 L 35.90141296386719 2.421282768249512 L 35.90705108642578 2.429982662200928 L 46.00055313110352 17.99098205566406 L 46.0023307800293 17.99373245239258 L 46.00413131713867 17.99646186828613 C 46.07040786743164 18.09766960144043 46.12889862060547 18.19048309326172 46.18045806884766 18.27529525756836 Z" stroke="none"/>
        <path d="M 43.38889312744141 16.72102737426758 L 34.62627029418945 3.211292743682861 C 34.57202911376953 3.125078201293945 34.5280876159668 3.062659740447998 34.49478912353516 3.018700361251831 C 34.40116119384766 3.01046347618103 34.24584579467773 3.002702713012695 33.99300003051758 3.002702713012695 L 13.58788585662842 3.002702713012695 C 16.35139656066895 6.883062839508057 21.76658058166504 14.52600765228271 22.36152267456055 15.36577224731445 C 22.57639694213867 15.63248062133789 22.99400329589844 16.14350128173828 23.2062816619873 16.30770301818848 L 23.24906158447266 16.3083324432373 L 43.38889312744141 16.72102737426758 M 46.45835113525391 19.77839279174805 C 46.22505187988281 19.77839279174805 45.97650146484375 19.77120208740234 45.72000122070312 19.76400184631348 C 45.41940689086914 19.75500297546387 45.10710525512695 19.74690055847168 44.79660034179688 19.75050354003906 L 23.18760108947754 19.30770301818848 C 21.76470184326172 19.30770301818848 21.00690269470215 18.46980285644531 19.96650123596191 17.17470359802246 C 19.96650123596191 17.17470359802246 13.42113208770752 7.935072898864746 10.69174194335938 4.108022689819336 L 2.41470193862915 19.04040336608887 C 2.07000207901001 19.66230392456055 1.286102056503296 19.88730430603027 0.6633018851280212 19.5426025390625 C 0.04140188917517662 19.19790267944336 -0.1835981160402298 18.41400337219238 0.1620018929243088 17.7921028137207 L 9.196561813354492 1.493102788925171 C 9.217301368713379 0.6310524940490723 10.14816951751709 -0.04683686420321465 12.17070198059082 0.002702772850170732 L 33.99300003051758 0.002702772850170732 C 35.41590118408203 0.002702772850170732 36.26460266113281 0.1818027794361115 37.16550064086914 1.613702774047852 L 47.25900268554688 17.17470359802246 C 48.77978134155273 19.49700355529785 47.91717147827148 19.77839279174805 46.45835113525391 19.77839279174805 Z" stroke="none" fill="#ba1a1a"/>
      </g>
      <g id="合体_3" data-name="合体 3" transform="translate(315.703 881.171)" fill="#ba1a1a">
        <path d="M 8.085696220397949 14.09595775604248 L 0.499996691942215 14.09595775604248 L 0.499996691942215 4.993227481842041 L 0.499996691942215 4.818217277526855 L 0.5115066766738892 4.642127513885498 C 0.6633566617965698 2.319437503814697 2.32448673248291 0.4999974370002747 4.293216705322266 0.4999974370002747 C 6.261676788330078 0.4999974370002747 7.922586917877197 2.319437503814697 8.074437141418457 4.642127513885498 L 8.085696220397949 4.814392566680908 L 8.085696220397949 14.09595775604248 Z" stroke="none"/>
        <path d="M 7.585696697235107 13.59595775604248 L 7.585696697235107 4.830770015716553 L 7.575496673583984 4.674747467041016 C 7.440786838531494 2.614137411117554 5.99903678894043 0.9999974370002747 4.293216705322266 0.9999974370002747 C 2.587126731872559 0.9999974370002747 1.145156621932983 2.614137411117554 1.010446667671204 4.674747467041016 L 0.9999966621398926 4.834594249725342 L 0.9999966621398926 13.59595775604248 L 7.585696697235107 13.59595775604248 M 8.585696220397949 14.59595775604248 L -3.320312544019544e-06 14.59595775604248 L -3.320312544019544e-06 4.60950756072998 L 0.01257667969912291 4.60950756072998 C 0.1811566799879074 2.030877351760864 2.033326625823975 -2.552490286689135e-06 4.293216705322266 -2.552490286689135e-06 C 6.553346633911133 -2.552490286689135e-06 8.404787063598633 2.030877351760864 8.573367118835449 4.60950756072998 L 8.585696220397949 4.60950756072998 L 8.585696220397949 14.59595775604248 Z" stroke="none" fill="#ba1a1a"/>
      </g>
      <g id="長方形_33" data-name="長方形 33" transform="translate(315.703 876.878)" fill="#fff" stroke="#ba1a1a" stroke-width="1">
        <rect width="8.586" height="3.434" rx="1" stroke="none"/>
        <rect x="0.5" y="0.5" width="7.586" height="2.434" rx="0.5" fill="none"/>
      </g>
    </g>
    <path id="パス_30" data-name="パス 30" d="M2.536.112A3.38,3.38,0,0,1,1.364-.1,3.161,3.161,0,0,1,.312-.744l.816-.984a2.676,2.676,0,0,0,.7.44,1.863,1.863,0,0,0,.74.168.99.99,0,0,0,.588-.14.449.449,0,0,0,.188-.38.392.392,0,0,0-.1-.284.976.976,0,0,0-.292-.2Q2.76-2.208,2.5-2.312l-.76-.32a2.477,2.477,0,0,1-.588-.344,1.684,1.684,0,0,1-.448-.536,1.565,1.565,0,0,1-.172-.752,1.591,1.591,0,0,1,.276-.912,1.924,1.924,0,0,1,.764-.648,2.506,2.506,0,0,1,1.12-.24,2.867,2.867,0,0,1,1.032.2,2.56,2.56,0,0,1,.9.588l-.712.9a2.563,2.563,0,0,0-.584-.34A1.7,1.7,0,0,0,2.7-4.84a.906.906,0,0,0-.516.128.411.411,0,0,0-.188.36.373.373,0,0,0,.116.28,1.074,1.074,0,0,0,.316.2q.2.088.464.192l.744.3a2.214,2.214,0,0,1,.632.368,1.511,1.511,0,0,1,.4.532,1.757,1.757,0,0,1,.14.732,1.689,1.689,0,0,1-.268.92,1.932,1.932,0,0,1-.776.684A2.669,2.669,0,0,1,2.536.112Zm5.216,0a2.436,2.436,0,0,1-1.18-.284,2.1,2.1,0,0,1-.832-.82A2.544,2.544,0,0,1,5.432-2.28a2.6,2.6,0,0,1,.18-.992A2.291,2.291,0,0,1,6.1-4.024,2.145,2.145,0,0,1,6.8-4.5a2.026,2.026,0,0,1,.8-.164,1.921,1.921,0,0,1,1.088.288,1.767,1.767,0,0,1,.648.784,2.778,2.778,0,0,1,.216,1.12,3.051,3.051,0,0,1-.02.36,1.887,1.887,0,0,1-.044.256H6.808a1.127,1.127,0,0,0,.224.5.966.966,0,0,0,.392.284,1.4,1.4,0,0,0,.52.092,1.61,1.61,0,0,0,.48-.072,2.348,2.348,0,0,0,.48-.216l.472.856a2.811,2.811,0,0,1-.788.384A2.805,2.805,0,0,1,7.752.112Zm-.968-2.9H8.336a.923.923,0,0,0-.164-.56.644.644,0,0,0-.556-.224.819.819,0,0,0-.364.084.793.793,0,0,0-.3.256A1.068,1.068,0,0,0,6.784-2.792ZM12.1.112a1.688,1.688,0,0,1-.924-.228,1.32,1.32,0,0,1-.52-.632,2.487,2.487,0,0,1-.164-.94V-3.44H9.872V-4.5l.7-.056.16-1.208h1.176v1.208h1.072V-3.44H11.912V-1.7a.743.743,0,0,0,.164.54A.559.559,0,0,0,12.488-1a.921.921,0,0,0,.224-.028,1.508,1.508,0,0,0,.192-.06l.224,1.032Q12.952,0,12.7.056A2.822,2.822,0,0,1,12.1.112Zm3.32,0a1.688,1.688,0,0,1-.924-.228,1.32,1.32,0,0,1-.52-.632,2.487,2.487,0,0,1-.164-.94V-3.44h-.616V-4.5l.7-.056.16-1.208h1.176v1.208H16.3V-3.44H15.232V-1.7a.743.743,0,0,0,.164.54A.559.559,0,0,0,15.808-1a.92.92,0,0,0,.224-.028,1.508,1.508,0,0,0,.192-.06l.224,1.032Q16.272,0,16.02.056A2.822,2.822,0,0,1,15.416.112ZM17.184,0V-4.552h1.424V0ZM17.9-5.184a.814.814,0,0,1-.576-.2A.7.7,0,0,1,17.1-5.92a.686.686,0,0,1,.216-.528.814.814,0,0,1,.576-.2.817.817,0,0,1,.572.2.679.679,0,0,1,.22.528.689.689,0,0,1-.22.536A.817.817,0,0,1,17.9-5.184ZM19.752,0V-4.552h1.16l.1.568h.024a2.909,2.909,0,0,1,.636-.48,1.646,1.646,0,0,1,.82-.2,1.21,1.21,0,0,1,1.08.5,2.381,2.381,0,0,1,.336,1.352V0H22.488V-2.64a1.125,1.125,0,0,0-.128-.64.471.471,0,0,0-.4-.168.76.76,0,0,0-.408.1,2.347,2.347,0,0,0-.376.3V0Zm6.9,1.912a3.712,3.712,0,0,1-.956-.116A1.522,1.522,0,0,1,25,1.428a.885.885,0,0,1-.256-.66A.864.864,0,0,1,24.9.26a1.255,1.255,0,0,1,.48-.388v-.04a1.054,1.054,0,0,1-.3-.308.869.869,0,0,1-.12-.476.866.866,0,0,1,.144-.468,1.282,1.282,0,0,1,.368-.38v-.032a1.515,1.515,0,0,1-.436-.476,1.331,1.331,0,0,1-.188-.708,1.506,1.506,0,0,1,.272-.92,1.64,1.64,0,0,1,.708-.548,2.4,2.4,0,0,1,.924-.18,2.551,2.551,0,0,1,.384.028,1.72,1.72,0,0,1,.336.084h1.672V-3.52h-.7a1.172,1.172,0,0,1,.084.244,1.3,1.3,0,0,1,.036.308,1.453,1.453,0,0,1-.244.868,1.419,1.419,0,0,1-.656.5,2.511,2.511,0,0,1-.916.16,1.717,1.717,0,0,1-.248-.02,2.651,2.651,0,0,1-.288-.06.648.648,0,0,0-.108.136.381.381,0,0,0-.036.184.243.243,0,0,0,.152.228,1.263,1.263,0,0,0,.52.076h.72a2.54,2.54,0,0,1,1.3.276.961.961,0,0,1,.46.892,1.263,1.263,0,0,1-.316.848,2.1,2.1,0,0,1-.9.58A4,4,0,0,1,26.648,1.912ZM26.76-2.3a.567.567,0,0,0,.3-.08.544.544,0,0,0,.208-.24.931.931,0,0,0,.076-.4.856.856,0,0,0-.076-.384.552.552,0,0,0-.208-.232.567.567,0,0,0-.3-.08.553.553,0,0,0-.292.08.552.552,0,0,0-.208.232.856.856,0,0,0-.076.384.931.931,0,0,0,.076.4.544.544,0,0,0,.208.24A.553.553,0,0,0,26.76-2.3Zm.112,3.32a1.754,1.754,0,0,0,.516-.068.948.948,0,0,0,.348-.18A.333.333,0,0,0,27.864.52a.253.253,0,0,0-.172-.268A1.564,1.564,0,0,0,27.2.192h-.432q-.248,0-.392-.012A1.342,1.342,0,0,1,26.12.136a.73.73,0,0,0-.156.2.453.453,0,0,0-.052.212.385.385,0,0,0,.264.36A1.7,1.7,0,0,0,26.872,1.024Z" transform="translate(310 903)" fill="#ba1a1a"/>
  </g>
</svg>
