<svg xmlns="http://www.w3.org/2000/svg" width="52.246" height="51.679" viewBox="0 0 52.246 51.679">
  <g id="グループ_69" data-name="グループ 69" transform="translate(-188.877 -851.433)">
    <g id="グループ_43" data-name="グループ 43" transform="translate(3.723 5.018)">
      <rect id="長方形_29" data-name="長方形 29" width="25.544" height="32.764" rx="7" transform="translate(185.154 854.839) rotate(-17)" fill="#7b8fff"/>
      <rect id="長方形_30" data-name="長方形 30" width="26.014" height="33.367" rx="7" transform="matrix(0.94, 0.342, -0.342, 0.94, 212.955, 846.415)" fill="#ff9f7b"/>
      <g id="長方形_31" data-name="長方形 31" transform="translate(199.154 851.591)" fill="#fff" stroke="#6750a4" stroke-width="3">
        <rect width="23.51" height="37.073" rx="7" stroke="none"/>
        <rect x="1.5" y="1.5" width="20.51" height="34.073" rx="5.5" fill="none"/>
      </g>
      <g id="長方形_28" data-name="長方形 28" transform="translate(194.961 847.974)" fill="#fff" stroke="#6750a4" stroke-width="3">
        <rect width="31.974" height="37.073" rx="7" stroke="none"/>
        <rect x="1.5" y="1.5" width="28.974" height="34.073" rx="5.5" fill="none"/>
      </g>
      <line id="線_11" data-name="線 11" x2="16.141" transform="translate(202.655 858.216)" fill="none" stroke="#6750a4" stroke-linecap="round" stroke-width="3"/>
      <line id="線_12" data-name="線 12" x2="16.141" transform="translate(202.655 864.086)" fill="none" stroke="#6750a4" stroke-linecap="round" stroke-width="3"/>
      <line id="線_13" data-name="線 13" x2="16.141" transform="translate(202.655 869.955)" fill="none" stroke="#6750a4" stroke-linecap="round" stroke-width="3"/>
      <line id="線_14" data-name="線 14" x2="16.141" transform="translate(202.655 875.825)" fill="none" stroke="#6750a4" stroke-linecap="round" stroke-width="3"/>
    </g>
    <path id="パス_29" data-name="パス 29" d="M2.536.112A3.38,3.38,0,0,1,1.364-.1,3.161,3.161,0,0,1,.312-.744l.816-.984a2.676,2.676,0,0,0,.7.44,1.863,1.863,0,0,0,.74.168.99.99,0,0,0,.588-.14.449.449,0,0,0,.188-.38.392.392,0,0,0-.1-.284.976.976,0,0,0-.292-.2Q2.76-2.208,2.5-2.312l-.76-.32a2.477,2.477,0,0,1-.588-.344,1.684,1.684,0,0,1-.448-.536,1.565,1.565,0,0,1-.172-.752,1.591,1.591,0,0,1,.276-.912,1.924,1.924,0,0,1,.764-.648,2.506,2.506,0,0,1,1.12-.24,2.867,2.867,0,0,1,1.032.2,2.56,2.56,0,0,1,.9.588l-.712.9a2.563,2.563,0,0,0-.584-.34A1.7,1.7,0,0,0,2.7-4.84a.906.906,0,0,0-.516.128.411.411,0,0,0-.188.36.373.373,0,0,0,.116.28,1.074,1.074,0,0,0,.316.2q.2.088.464.192l.744.3a2.214,2.214,0,0,1,.632.368,1.511,1.511,0,0,1,.4.532,1.757,1.757,0,0,1,.14.732,1.689,1.689,0,0,1-.268.92,1.932,1.932,0,0,1-.776.684A2.669,2.669,0,0,1,2.536.112Zm4.448,0a1.319,1.319,0,0,1-.772-.2,1.08,1.08,0,0,1-.4-.56,2.631,2.631,0,0,1-.12-.832V-6.392H7.112v4.96a.434.434,0,0,0,.084.308.239.239,0,0,0,.164.084.585.585,0,0,0,.072,0l.088-.012L7.688-.008A1.518,1.518,0,0,1,7.4.076,2.1,2.1,0,0,1,6.984.112ZM8.344,0V-4.552H9.768V0Zm.712-5.184a.814.814,0,0,1-.576-.2.7.7,0,0,1-.216-.536.686.686,0,0,1,.216-.528.814.814,0,0,1,.576-.2.817.817,0,0,1,.572.2.679.679,0,0,1,.22.528.689.689,0,0,1-.22.536A.817.817,0,0,1,9.056-5.184Zm3.488,5.3a1.7,1.7,0,0,1-.988-.288A1.842,1.842,0,0,1,10.908-1a3.259,3.259,0,0,1-.228-1.28,2.773,2.773,0,0,1,.272-1.276,2.115,2.115,0,0,1,.7-.82,1.605,1.605,0,0,1,.9-.288,1.353,1.353,0,0,1,.624.128,2.01,2.01,0,0,1,.472.344l-.048-.68v-1.52h1.424V0h-1.16l-.1-.44h-.032a2.107,2.107,0,0,1-.552.4A1.416,1.416,0,0,1,12.544.112Zm.376-1.168a.838.838,0,0,0,.372-.08.863.863,0,0,0,.316-.3V-3.232a.908.908,0,0,0-.344-.212A1.181,1.181,0,0,0,12.9-3.5a.6.6,0,0,0-.364.128.9.9,0,0,0-.28.392,1.842,1.842,0,0,0-.108.688,2.28,2.28,0,0,0,.092.708.788.788,0,0,0,.268.4A.688.688,0,0,0,12.92-1.056ZM18.24.112a2.436,2.436,0,0,1-1.18-.284,2.1,2.1,0,0,1-.832-.82A2.544,2.544,0,0,1,15.92-2.28a2.6,2.6,0,0,1,.18-.992,2.291,2.291,0,0,1,.488-.752,2.145,2.145,0,0,1,.7-.476,2.026,2.026,0,0,1,.8-.164,1.921,1.921,0,0,1,1.088.288,1.767,1.767,0,0,1,.648.784,2.778,2.778,0,0,1,.216,1.12,3.051,3.051,0,0,1-.02.36,1.887,1.887,0,0,1-.044.256H17.3a1.127,1.127,0,0,0,.224.5.966.966,0,0,0,.392.284,1.4,1.4,0,0,0,.52.092,1.61,1.61,0,0,0,.48-.072,2.348,2.348,0,0,0,.48-.216l.472.856a2.811,2.811,0,0,1-.788.384A2.805,2.805,0,0,1,18.24.112Zm-.968-2.9h1.552a.923.923,0,0,0-.164-.56.644.644,0,0,0-.556-.224.819.819,0,0,0-.364.084.793.793,0,0,0-.3.256A1.068,1.068,0,0,0,17.272-2.792ZM20.944,0V-4.552H22.1l.1.792h.024a1.877,1.877,0,0,1,.6-.68,1.272,1.272,0,0,1,.692-.224,1.568,1.568,0,0,1,.332.028,1.343,1.343,0,0,1,.22.068l-.232,1.224q-.128-.032-.24-.052a1.521,1.521,0,0,0-.264-.02.953.953,0,0,0-.524.184,1.3,1.3,0,0,0-.452.632V0Z" transform="translate(204 903)" fill="#6750a4"/>
  </g>
</svg>
