<svg id="グループ_48" data-name="グループ 48" xmlns="http://www.w3.org/2000/svg" width="52.246" height="51.679" viewBox="0 0 52.246 51.679">
  <g id="グループ_43" data-name="グループ 43">
    <path id="パス_17" data-name="パス 17" d="M7,0H18.544a7,7,0,0,1,7,7V25.764a7,7,0,0,1-7,7H7a7,7,0,0,1-7-7V7A7,7,0,0,1,7,0Z" transform="translate(0 8.424) rotate(-17)" fill="#707070"/>
    <rect id="長方形_30" data-name="長方形 30" width="26.014" height="33.367" rx="7" transform="matrix(0.94, 0.342, -0.342, 0.94, 27.801, 0)" fill="#707070"/>
    <rect id="長方形_31" data-name="長方形 31" width="23.51" height="37.073" rx="7" transform="translate(14.001 5.176)" fill="#fff"/>
    <path id="長方形_31_-_アウトライン" data-name="長方形 31 - アウトライン" d="M7,3A4,4,0,0,0,3,7V30.073a4,4,0,0,0,4,4h9.51a4,4,0,0,0,4-4V7a4,4,0,0,0-4-4H7M7,0h9.51a7,7,0,0,1,7,7V30.073a7,7,0,0,1-7,7H7a7,7,0,0,1-7-7V7A7,7,0,0,1,7,0Z" transform="translate(14.001 5.176)" fill="#707070"/>
    <rect id="長方形_28" data-name="長方形 28" width="31.974" height="37.073" rx="7" transform="translate(9.808 1.559)" fill="#fff"/>
    <path id="長方形_28_-_アウトライン" data-name="長方形 28 - アウトライン" d="M7,3A4,4,0,0,0,3,7V30.073a4,4,0,0,0,4,4H24.974a4,4,0,0,0,4-4V7a4,4,0,0,0-4-4H7M7,0H24.974a7,7,0,0,1,7,7V30.073a7,7,0,0,1-7,7H7a7,7,0,0,1-7-7V7A7,7,0,0,1,7,0Z" transform="translate(9.808 1.559)" fill="#707070"/>
    <path id="線_11" data-name="線 11" d="M16.141,1.5H0A1.5,1.5,0,0,1-1.5,0,1.5,1.5,0,0,1,0-1.5H16.141a1.5,1.5,0,0,1,1.5,1.5A1.5,1.5,0,0,1,16.141,1.5Z" transform="translate(17.501 11.801)" fill="#707070"/>
    <path id="線_12" data-name="線 12" d="M16.141,1.5H0A1.5,1.5,0,0,1-1.5,0,1.5,1.5,0,0,1,0-1.5H16.141a1.5,1.5,0,0,1,1.5,1.5A1.5,1.5,0,0,1,16.141,1.5Z" transform="translate(17.501 17.671)" fill="#707070"/>
    <path id="線_13" data-name="線 13" d="M16.141,1.5H0A1.5,1.5,0,0,1-1.5,0,1.5,1.5,0,0,1,0-1.5H16.141a1.5,1.5,0,0,1,1.5,1.5A1.5,1.5,0,0,1,16.141,1.5Z" transform="translate(17.501 23.54)" fill="#707070"/>
    <path id="線_14" data-name="線 14" d="M16.141,1.5H0A1.5,1.5,0,0,1-1.5,0,1.5,1.5,0,0,1,0-1.5H16.141a1.5,1.5,0,0,1,1.5,1.5A1.5,1.5,0,0,1,16.141,1.5Z" transform="translate(17.501 29.41)" fill="#707070"/>
  </g>
  <path id="パス_31" data-name="パス 31" d="M2.48.112A3.009,3.009,0,0,1,1.32-.116,3.008,3.008,0,0,1,.352-.752L.96-1.48a2.621,2.621,0,0,0,.724.488A1.944,1.944,0,0,0,2.5-.808a1.2,1.2,0,0,0,.764-.208.663.663,0,0,0,.26-.544.627.627,0,0,0-.12-.4,1,1,0,0,0-.324-.26q-.2-.108-.468-.22L1.8-2.784a2.793,2.793,0,0,1-.564-.32A1.64,1.64,0,0,1,.78-3.612,1.425,1.425,0,0,1,.6-4.344,1.485,1.485,0,0,1,.856-5.2a1.773,1.773,0,0,1,.708-.6,2.319,2.319,0,0,1,1.028-.22,2.575,2.575,0,0,1,1,.2,2.46,2.46,0,0,1,.824.552l-.544.672a2.383,2.383,0,0,0-.588-.376A1.7,1.7,0,0,0,2.592-5.1a1.089,1.089,0,0,0-.664.184.594.594,0,0,0-.248.5.565.565,0,0,0,.132.384,1.029,1.029,0,0,0,.344.252q.212.1.46.2l.792.328a2.546,2.546,0,0,1,.62.356,1.525,1.525,0,0,1,.42.512,1.606,1.606,0,0,1,.152.732,1.618,1.618,0,0,1-.252.88,1.784,1.784,0,0,1-.728.64A2.507,2.507,0,0,1,2.48.112Zm4.12,0a1.016,1.016,0,0,1-.592-.156.85.85,0,0,1-.32-.44,2.061,2.061,0,0,1-.1-.66V-6.376H6.64V-1.1a.389.389,0,0,0,.072.268.21.21,0,0,0,.152.076.516.516,0,0,0,.064,0l.1-.012.128.784a1.3,1.3,0,0,1-.228.068A1.591,1.591,0,0,1,6.6.112ZM8.04,0V-4.44H9.088V0Zm.528-5.216a.625.625,0,0,1-.456-.164.582.582,0,0,1-.168-.436.571.571,0,0,1,.168-.428.625.625,0,0,1,.456-.164.631.631,0,0,1,.448.164.558.558,0,0,1,.176.428.568.568,0,0,1-.176.436A.631.631,0,0,1,8.568-5.216ZM11.952.112a1.691,1.691,0,0,1-.964-.276,1.768,1.768,0,0,1-.636-.8,3.174,3.174,0,0,1-.224-1.252A2.7,2.7,0,0,1,10.4-3.464a2.072,2.072,0,0,1,.7-.8,1.646,1.646,0,0,1,.92-.284,1.419,1.419,0,0,1,.64.132,2.476,2.476,0,0,1,.52.356l-.04-.712v-1.6h1.048V0h-.856l-.08-.48h-.032a2.383,2.383,0,0,1-.572.42A1.454,1.454,0,0,1,11.952.112Zm.264-.872a1.029,1.029,0,0,0,.48-.116,1.448,1.448,0,0,0,.44-.38V-3.312a1.384,1.384,0,0,0-.448-.292,1.289,1.289,0,0,0-.456-.084.829.829,0,0,0-.5.172,1.213,1.213,0,0,0-.376.5,1.935,1.935,0,0,0-.144.788,2.368,2.368,0,0,0,.12.808,1.037,1.037,0,0,0,.348.5A.885.885,0,0,0,12.216-.76ZM17.4.112a2.222,2.222,0,0,1-1.112-.28,2.048,2.048,0,0,1-.788-.8,2.511,2.511,0,0,1-.292-1.248,2.589,2.589,0,0,1,.172-.972,2.307,2.307,0,0,1,.464-.736,2.02,2.02,0,0,1,.656-.468,1.86,1.86,0,0,1,.756-.16,1.8,1.8,0,0,1,1.008.268,1.663,1.663,0,0,1,.616.744,2.725,2.725,0,0,1,.208,1.1q0,.152-.012.284a1.3,1.3,0,0,1-.036.22H16.232a1.482,1.482,0,0,0,.216.664,1.218,1.218,0,0,0,.452.42,1.325,1.325,0,0,0,.636.148,1.635,1.635,0,0,0,.528-.084,2.463,2.463,0,0,0,.5-.236l.36.656a3.086,3.086,0,0,1-.7.344A2.472,2.472,0,0,1,17.4.112Zm-1.184-2.76h1.976a1.246,1.246,0,0,0-.232-.8.826.826,0,0,0-.688-.292.961.961,0,0,0-.472.124,1.074,1.074,0,0,0-.38.364A1.438,1.438,0,0,0,16.216-2.648ZM20.088,0V-4.44h.856l.088.792h.016a1.959,1.959,0,0,1,.576-.668,1.185,1.185,0,0,1,.688-.236,1.478,1.478,0,0,1,.292.024.863.863,0,0,1,.212.072l-.176.9q-.12-.032-.22-.052a1.267,1.267,0,0,0-.244-.02.961.961,0,0,0-.548.208,1.548,1.548,0,0,0-.492.712V0Z" transform="translate(15.123 51.567)" fill="#707070"/>
</svg>
