<svg width="48" height="48" viewBox="0 0 48 48" fill="none" xmlns="http://www.w3.org/2000/svg">
<g clip-path="url(#clip0_155_3343)">
<path d="M14.8597 36.5662C14.09 36.5662 13.3519 36.2604 12.8077 35.7162C12.2634 35.172 11.9577 34.4338 11.9577 33.6642V30.9695C5.71927 29.6794 4.71436 22.9493 4.71436 22.9493C4.71436 22.9493 6.57162 25.2543 11.9577 26.1588V19.2496C11.9577 18.48 12.2634 17.7419 12.8077 17.1976C13.3519 16.6534 14.09 16.3477 14.8597 16.3477H16.6083L18.939 10.5213C19.0006 10.3674 19.1068 10.2355 19.244 10.1426C19.3813 10.0497 19.5432 10.0001 19.7089 10.0001C19.8746 10.0001 20.0365 10.0497 20.1738 10.1426C20.311 10.2355 20.4172 10.3674 20.4787 10.5213L22.8095 16.3468H30.086L32.4183 10.5213C32.4799 10.3674 32.5861 10.2355 32.7233 10.1426C32.8605 10.0497 33.0225 10.0001 33.1882 10.0001C33.3539 10.0001 33.5158 10.0497 33.653 10.1426C33.7903 10.2355 33.8965 10.3674 33.958 10.5213L36.2887 16.3468H38.709C39.4786 16.3468 40.2168 16.6526 40.761 17.1968C41.3052 17.741 41.611 18.4792 41.611 19.2488V33.665C41.611 34.4347 41.3052 35.1728 40.761 35.717C40.2168 36.2613 39.4786 36.567 38.709 36.567L14.8597 36.5662Z" fill="white" stroke="#01619D" stroke-width="3" stroke-linejoin="round"/>
<path d="M20.3836 24.7725C21.1282 24.7725 21.7318 24.1689 21.7318 23.4243C21.7318 22.6798 21.1282 22.0762 20.3836 22.0762C19.639 22.0762 19.0354 22.6798 19.0354 23.4243C19.0354 24.1689 19.639 24.7725 20.3836 24.7725Z" fill="#01619D"/>
<path d="M20.3836 24.3579C20.8992 24.3579 21.3172 23.9399 21.3172 23.4243C21.3172 22.9087 20.8992 22.4907 20.3836 22.4907C19.8679 22.4907 19.45 22.9087 19.45 23.4243C19.45 23.9399 19.8679 24.3579 20.3836 24.3579Z" stroke="#01619D"/>
<path d="M32.5147 24.7725C33.2593 24.7725 33.8629 24.1689 33.8629 23.4243C33.8629 22.6798 33.2593 22.0762 32.5147 22.0762C31.7701 22.0762 31.1665 22.6798 31.1665 23.4243C31.1665 24.1689 31.7701 24.7725 32.5147 24.7725Z" fill="#01619D"/>
<path d="M25.7549 25.1867H27.1433C27.4003 25.1867 27.5014 25.3826 27.5263 25.4426C27.5512 25.5027 27.6182 25.7127 27.4364 25.8944L26.7422 26.5886C26.6639 26.6669 26.5598 26.71 26.4491 26.71C26.3384 26.71 26.2342 26.6669 26.1559 26.5886L25.4618 25.8944C25.28 25.7127 25.347 25.5027 25.3719 25.4426C25.3968 25.3826 25.4979 25.1867 25.7549 25.1867Z" fill="#01619D"/>
<path d="M26.4491 26.2955L27.1433 25.6013H25.755L26.4491 26.2955C26.4487 26.2955 26.4492 26.2956 26.4491 26.2955ZM26.4491 27.1247C26.2369 27.1247 26.0247 27.0437 25.8628 26.8818L25.1687 26.1876C24.6463 25.6653 25.0163 24.7722 25.755 24.7722H27.1433C27.882 24.7722 28.2519 25.6653 27.7296 26.1876L27.0354 26.8818C26.8735 27.0437 26.6613 27.1247 26.4491 27.1247Z" fill="#01619D"/>
<path d="M12.0432 31.5117H41.024V34.4137C41.024 35.0734 40.762 35.7061 40.2955 36.1726C39.829 36.6391 39.1963 36.9011 38.5366 36.9011H14.5306C13.8709 36.9011 13.2382 36.6391 12.7718 36.1726C12.3053 35.7061 12.0432 35.0734 12.0432 34.4137V31.5117Z" fill="#6FD1C9"/>
<path d="M12.4578 31.9263H40.6095V34.4137C40.6095 34.6859 40.5558 34.9555 40.4517 35.207C40.3475 35.4584 40.1948 35.687 40.0023 35.8794C39.8099 36.0719 39.5814 36.2246 39.3299 36.3288C39.0784 36.4329 38.8088 36.4866 38.5366 36.4866H14.5306C14.2584 36.4866 13.9889 36.4329 13.7374 36.3288C13.4859 36.2246 13.2574 36.0719 13.0649 35.8794C12.6762 35.4907 12.4578 34.9635 12.4578 34.4137V31.9263Z" stroke="#01619D"/>
<path d="M26.1969 39.1846C24.9389 39.1846 23.9155 38.1612 23.9155 36.9032C23.9155 35.6453 24.9389 34.6219 26.1969 34.6219C27.4548 34.6219 28.4782 35.6453 28.4782 36.9032C28.4782 38.1612 27.4548 39.1846 26.1969 39.1846Z" fill="#E5DC9B"/>
<path d="M26.1969 35.0365C25.1675 35.0365 24.3301 35.8739 24.3301 36.9032C24.3301 37.9326 25.1675 38.77 26.1969 38.77C27.2262 38.77 28.0636 37.9326 28.0636 36.9032C28.0636 35.8739 27.2262 35.0365 26.1969 35.0365ZM26.1969 34.2073C27.6858 34.2073 28.8928 35.4143 28.8928 36.9032C28.8928 38.3921 27.6858 39.5991 26.1969 39.5991C24.708 39.5991 23.501 38.3921 23.501 36.9032C23.501 35.4143 24.708 34.2073 26.1969 34.2073Z" fill="#01619D"/>
<path d="M23.9878 36.1541H28.3623" stroke="#01619D"/>
<path d="M26.1965 36.1541V38.581" stroke="#01619D"/>
<path d="M26.1971 39.1844C26.0541 39.1844 25.9377 39.0681 25.9377 38.925C25.9377 38.782 26.0541 38.6656 26.1971 38.6656C26.3402 38.6656 26.4566 38.782 26.4566 38.925C26.4566 39.0681 26.3402 39.1844 26.1971 39.1844Z" fill="white"/>
<path d="M26.1972 38.251C26.5694 38.251 26.8711 38.5528 26.8711 38.925C26.8711 39.2972 26.5694 39.599 26.1972 39.599C25.8249 39.599 25.5232 39.2972 25.5232 38.925C25.5232 38.5528 25.8249 38.251 26.1972 38.251Z" fill="#01619D"/>
<path d="M11.3691 20.0539H24.8484L23.5633 28.8154H13.1932L11.3691 20.0539Z" stroke="#6ED1C8" stroke-width="2" stroke-linecap="round" stroke-linejoin="round"/>
<path d="M41.0241 20.0539H28.136L29.4211 28.8154H39.4612L41.0241 20.0539Z" stroke="#6ED1C8" stroke-width="2" stroke-linecap="round" stroke-linejoin="round"/>
</g>
<defs>
<clipPath id="clip0_155_3343">
<rect width="40.716" height="31.8849" fill="white" transform="translate(3.42871 7.71429)"/>
</clipPath>
</defs>
</svg>
