<svg width="48" height="48" viewBox="0 0 48 48" fill="none" xmlns="http://www.w3.org/2000/svg">
<g clip-path="url(#clip0_155_3344)">
<path d="M15.2026 36.4646C14.407 36.4646 13.6439 36.1485 13.0813 35.5859C12.5187 35.0233 12.2026 34.2602 12.2026 33.4646V30.6797C5.75346 29.3451 4.7146 22.3877 4.7146 22.3877C4.7146 22.3877 6.6346 24.7706 12.2026 25.7057V18.5623C12.2026 17.7666 12.5187 17.0036 13.0813 16.441C13.6439 15.8783 14.407 15.5623 15.2026 15.5623H17.0103L19.4197 9.53913C19.4834 9.38007 19.5932 9.24371 19.735 9.14766C19.8769 9.05161 20.0443 9.00027 20.2156 9.00027C20.3869 9.00027 20.5543 9.05161 20.6962 9.14766C20.838 9.24371 20.9478 9.38007 21.0115 9.53913L23.4209 15.5623H30.9432L33.3543 9.53913C33.4179 9.38007 33.5278 9.24371 33.6696 9.14766C33.8115 9.05161 33.9789 9.00027 34.1502 9.00027C34.3215 9.00027 34.4889 9.05161 34.6307 9.14766C34.7726 9.24371 34.8824 9.38007 34.946 9.53913L37.3555 15.5623H39.8575C40.2514 15.5623 40.6415 15.6399 41.0055 15.7906C41.3695 15.9414 41.7002 16.1624 41.9788 16.441C42.2574 16.7195 42.4783 17.0502 42.6291 17.4142C42.7799 17.7782 42.8575 18.1683 42.8575 18.5623V33.4646C42.8575 34.2602 42.5414 35.0233 41.9788 35.5859C41.4162 36.1485 40.6531 36.4646 39.8575 36.4646H15.2026Z" fill="white"/>
<path d="M39.8574 37.7504H15.2025C14.0663 37.749 12.977 37.2971 12.1735 36.4936C11.3701 35.6902 10.9182 34.6009 10.9168 33.4647V31.6732C8.33886 30.8502 6.18532 29.0511 4.91679 26.6607C4.20342 25.3901 3.70499 24.0104 3.44165 22.5772C3.397 22.2945 3.44721 22.005 3.58443 21.7538C3.72166 21.5026 3.93819 21.3039 4.20022 21.1887C4.45838 21.0759 4.7468 21.0525 5.01977 21.1222C5.29273 21.1919 5.53461 21.3508 5.70708 21.5735C6.14031 22.0125 6.63558 22.3857 7.17708 22.681C8.34775 23.3385 9.6061 23.826 10.9142 24.1287V18.5624C10.9156 17.4262 11.3675 16.3369 12.171 15.5334C12.9744 14.73 14.0637 14.278 15.1999 14.2767H16.1368L18.2256 9.06182C18.3848 8.66428 18.6593 8.32353 19.0139 8.08351C19.3685 7.84349 19.7869 7.71521 20.2151 7.71521C20.6433 7.71521 21.0616 7.84349 21.4162 8.08351C21.7708 8.32353 22.0454 8.66428 22.2045 9.06182L24.2908 14.2767H30.0748L32.1611 9.06182C32.3202 8.66428 32.5947 8.32353 32.9493 8.08351C33.3039 7.84349 33.7223 7.71521 34.1505 7.71521C34.5787 7.71521 34.9971 7.84349 35.3517 8.08351C35.7063 8.32353 35.9808 8.66428 36.1399 9.06182L38.2288 14.2767H39.8574C40.9936 14.278 42.0829 14.73 42.8863 15.5334C43.6898 16.3369 44.1417 17.4262 44.1431 18.5624V33.4647C44.1417 34.6009 43.6898 35.6902 42.8863 36.4936C42.0829 37.2971 40.9936 37.749 39.8574 37.7504ZM7.28593 25.615C7.82145 26.5867 8.56183 27.4303 9.45578 28.0874C10.3497 28.7446 11.3759 29.1995 12.4631 29.4207C12.7533 29.4799 13.0142 29.6376 13.2017 29.867C13.3891 30.0965 13.4915 30.3836 13.4916 30.6798V33.4647C13.4916 33.9193 13.6723 34.3554 13.9938 34.6769C14.3152 34.9984 14.7513 35.179 15.2059 35.179H39.8574C40.312 35.179 40.7481 34.9984 41.0695 34.6769C41.391 34.3554 41.5717 33.9193 41.5717 33.4647V18.5624C41.5717 18.1077 41.391 17.6717 41.0695 17.3502C40.7481 17.0287 40.312 16.8481 39.8574 16.8481H37.3554C37.0984 16.8481 36.8472 16.7712 36.6344 16.6271C36.4216 16.483 36.2568 16.2785 36.1614 16.0398L34.1505 11.0118L32.1431 16.0398C32.0476 16.2785 31.8829 16.483 31.67 16.6271C31.4572 16.7712 31.2061 16.8481 30.9491 16.8481H23.4199C23.1629 16.8481 22.9118 16.7712 22.699 16.6271C22.4861 16.483 22.3214 16.2785 22.2259 16.0398L20.2151 11.0118L18.2042 16.0398C18.1088 16.2785 17.944 16.483 17.7312 16.6271C17.5184 16.7712 17.2672 16.8481 17.0102 16.8481H15.2025C14.7478 16.8481 14.3118 17.0287 13.9903 17.3502C13.6688 17.6717 13.4882 18.1077 13.4882 18.5624V25.705C13.4882 25.8919 13.4474 26.0765 13.3688 26.246C13.2901 26.4155 13.1754 26.5659 13.0327 26.6866C12.89 26.8072 12.7227 26.8953 12.5425 26.9448C12.3622 26.9942 12.1734 27.0037 11.9891 26.9727C10.371 26.7174 8.79111 26.2613 7.28593 25.615Z" fill="#707070"/>
<path d="M20.9128 24.2717C21.6825 24.2717 22.3065 23.6477 22.3065 22.8779C22.3065 22.1082 21.6825 21.4842 20.9128 21.4842C20.143 21.4842 19.519 22.1082 19.519 22.8779C19.519 23.6477 20.143 24.2717 20.9128 24.2717Z" fill="#707070"/>
<path d="M20.9128 22.3414C20.8066 22.3414 20.7029 22.3728 20.6147 22.4318C20.5264 22.4908 20.4576 22.5746 20.417 22.6726C20.3764 22.7706 20.3658 22.8785 20.3865 22.9826C20.4072 23.0867 20.4583 23.1823 20.5333 23.2573C20.6084 23.3324 20.704 23.3835 20.8081 23.4042C20.9122 23.4249 21.02 23.4143 21.1181 23.3737C21.2161 23.3331 21.2999 23.2643 21.3589 23.176C21.4179 23.0878 21.4493 22.9841 21.4493 22.8779C21.4493 22.7356 21.3928 22.5992 21.2922 22.4985C21.1915 22.3979 21.0551 22.3414 20.9128 22.3414ZM20.9128 21.4842C21.1884 21.4842 21.4579 21.566 21.6871 21.7191C21.9163 21.8722 22.0949 22.0899 22.2004 22.3446C22.3059 22.5993 22.3335 22.8795 22.2797 23.1498C22.2259 23.4202 22.0932 23.6685 21.8983 23.8634C21.7033 24.0584 21.455 24.1911 21.1847 24.2449C20.9143 24.2986 20.6341 24.271 20.3794 24.1656C20.1247 24.0601 19.9071 23.8814 19.7539 23.6522C19.6008 23.423 19.519 23.1536 19.519 22.8779C19.519 22.5083 19.6659 22.1538 19.9273 21.8924C20.1886 21.6311 20.5431 21.4842 20.9128 21.4842Z" fill="#707070"/>
<path d="M33.4535 24.2717C34.2233 24.2717 34.8472 23.6477 34.8472 22.8779C34.8472 22.1082 34.2233 21.4842 33.4535 21.4842C32.6838 21.4842 32.0598 22.1082 32.0598 22.8779C32.0598 23.6477 32.6838 24.2717 33.4535 24.2717Z" fill="#707070"/>
<path d="M33.4535 21.4842C33.7292 21.4842 33.9986 21.566 34.2278 21.7191C34.457 21.8722 34.6357 22.0899 34.7412 22.3446C34.8466 22.5993 34.8742 22.8795 34.8205 23.1498C34.7667 23.4202 34.6339 23.6685 34.439 23.8634C34.2441 24.0584 33.9958 24.1911 33.7254 24.2449C33.4551 24.2986 33.1748 24.271 32.9202 24.1656C32.6655 24.0601 32.4478 23.8814 32.2947 23.6522C32.1416 23.423 32.0598 23.1536 32.0598 22.8779C32.0598 22.5083 32.2067 22.1538 32.468 21.8924C32.7294 21.6311 33.0839 21.4842 33.4535 21.4842Z" fill="#707070"/>
<path d="M27.7897 26.4523C27.6289 26.6129 27.411 26.7032 27.1837 26.7032C26.9564 26.7032 26.7384 26.6129 26.5777 26.4523L25.8602 25.7348C25.7404 25.615 25.6588 25.4622 25.6257 25.296C25.5927 25.1298 25.6097 24.9574 25.6745 24.8008C25.7394 24.6442 25.8492 24.5104 25.9901 24.4162C26.1311 24.322 26.2967 24.2717 26.4662 24.2717H27.9011C28.0706 24.2717 28.2363 24.322 28.3772 24.4162C28.5181 24.5104 28.628 24.6442 28.6928 24.8008C28.7577 24.9574 28.7747 25.1298 28.7416 25.296C28.7085 25.4622 28.6269 25.615 28.5071 25.7348L27.7897 26.4523Z" fill="#707070"/>
<path d="M27.1837 25.8463L27.9011 25.1289H26.4654L27.182 25.8463M27.182 26.7034C26.9546 26.7034 26.7367 26.613 26.576 26.4523L25.8585 25.7349C25.7387 25.615 25.6571 25.4623 25.624 25.296C25.591 25.1298 25.6079 24.9575 25.6728 24.8009C25.7377 24.6443 25.8475 24.5104 25.9884 24.4162C26.1293 24.322 26.295 24.2718 26.4645 24.2717H27.9011C28.0706 24.2718 28.2363 24.322 28.3772 24.4162C28.5181 24.5104 28.628 24.6443 28.6928 24.8009C28.7577 24.9575 28.7747 25.1298 28.7416 25.296C28.7085 25.4623 28.6269 25.615 28.5071 25.7349L27.7897 26.4523C27.629 26.613 27.411 26.7034 27.1837 26.7034H27.182Z" fill="#707070"/>
<path d="M12.2908 31.2385H42.2505V34.2385C42.2505 34.9205 41.9796 35.5746 41.4973 36.0568C41.0151 36.539 40.361 36.81 39.6791 36.81H14.8622C14.1802 36.81 13.5262 36.539 13.0439 36.0568C12.5617 35.5746 12.2908 34.9205 12.2908 34.2385V31.2385Z" fill="#707070"/>
<path d="M13.1479 32.0957V34.2385C13.1479 34.6932 13.3285 35.1292 13.65 35.4507C13.9715 35.7722 14.4075 35.9528 14.8622 35.9528H39.6791C39.9042 35.9528 40.1271 35.9085 40.3351 35.8223C40.5431 35.7362 40.7321 35.6099 40.8912 35.4507C41.0504 35.2915 41.1767 35.1025 41.2629 34.8946C41.349 34.6866 41.3933 34.4636 41.3933 34.2385V32.0957H13.1479ZM12.2908 31.2385H42.2505V34.2385C42.2505 34.9205 41.9796 35.5746 41.4973 36.0568C41.0151 36.539 40.361 36.81 39.6791 36.81H14.8622C14.1802 36.81 13.5262 36.539 13.0439 36.0568C12.5617 35.5746 12.2908 34.9205 12.2908 34.2385V31.2385Z" fill="#707070"/>
<path d="M26.9223 34.0251C27.4734 34.0251 28.0122 34.1885 28.4705 34.4947C28.9287 34.8009 29.2859 35.2361 29.4968 35.7453C29.7077 36.2545 29.7629 36.8148 29.6553 37.3553C29.5478 37.8959 29.2824 38.3924 28.8927 38.7821C28.503 39.1718 28.0065 39.4372 27.4659 39.5447C26.9254 39.6522 26.3651 39.5971 25.8559 39.3861C25.3468 39.1752 24.9116 38.8181 24.6054 38.3598C24.2992 37.9016 24.1357 37.3628 24.1357 36.8117C24.1357 36.0726 24.4293 35.3639 24.9519 34.8413C25.4745 34.3187 26.1833 34.0251 26.9223 34.0251Z" fill="white"/>
<path d="M26.9223 34.8823C26.5406 34.8819 26.1674 34.9948 25.8499 35.2066C25.5324 35.4184 25.2848 35.7196 25.1385 36.0721C24.9922 36.4247 24.9538 36.8127 25.028 37.187C25.1023 37.5614 25.2859 37.9054 25.5557 38.1754C25.8254 38.4454 26.1692 38.6293 26.5436 38.7039C26.9179 38.7785 27.3059 38.7404 27.6586 38.5944C28.0112 38.4484 28.3127 38.2011 28.5247 37.8838C28.7368 37.5665 28.85 37.1934 28.85 36.8117C28.8493 36.3005 28.6461 35.8104 28.2848 35.4487C27.9234 35.0871 27.4335 34.8834 26.9223 34.8823ZM26.9223 34.0251C27.4734 34.0251 28.0122 34.1885 28.4705 34.4947C28.9287 34.8009 29.2859 35.2361 29.4968 35.7453C29.7077 36.2545 29.7629 36.8148 29.6553 37.3553C29.5478 37.8959 29.2824 38.3924 28.8927 38.7821C28.503 39.1718 28.0065 39.4372 27.4659 39.5447C26.9254 39.6522 26.3651 39.5971 25.8559 39.3861C25.3468 39.1752 24.9116 38.8181 24.6054 38.3598C24.2992 37.9016 24.1357 37.3628 24.1357 36.8117C24.1357 36.0726 24.4293 35.3639 24.9519 34.8413C25.4745 34.3187 26.1833 34.0251 26.9223 34.0251Z" fill="#707070"/>
<path d="M29.1612 36.4662H24.6389V35.6091H29.1612V36.4662Z" fill="#707070"/>
<path d="M27.3508 38.5465H26.4937V36.0377H27.3508V38.5465Z" fill="#707070"/>
<path d="M26.9232 38.2054C27.061 38.2054 27.1957 38.2463 27.3103 38.3229C27.4249 38.3994 27.5142 38.5083 27.567 38.6356C27.6197 38.7629 27.6335 38.903 27.6066 39.0382C27.5798 39.1734 27.5134 39.2976 27.4159 39.395C27.3185 39.4925 27.1943 39.5588 27.0591 39.5857C26.9239 39.6126 26.7838 39.5988 26.6565 39.5461C26.5292 39.4933 26.4203 39.404 26.3438 39.2894C26.2672 39.1748 26.2263 39.0401 26.2263 38.9023C26.2263 38.7175 26.2997 38.5402 26.4304 38.4095C26.5611 38.2788 26.7384 38.2054 26.9232 38.2054Z" fill="white"/>
<path d="M26.9232 38.2054C27.061 38.2054 27.1957 38.2463 27.3103 38.3229C27.4249 38.3994 27.5142 38.5083 27.567 38.6356C27.6197 38.7629 27.6335 38.903 27.6066 39.0382C27.5798 39.1734 27.5134 39.2976 27.4159 39.395C27.3185 39.4925 27.1943 39.5588 27.0591 39.5857C26.9239 39.6126 26.7838 39.5988 26.6565 39.5461C26.5292 39.4933 26.4203 39.404 26.3438 39.2894C26.2672 39.1748 26.2263 39.0401 26.2263 38.9023C26.2263 38.7175 26.2997 38.5402 26.4304 38.4095C26.5611 38.2788 26.7384 38.2054 26.9232 38.2054Z" fill="#707070"/>
<path d="M11.5938 18.5365H25.5284C25.6515 18.5365 25.7732 18.5629 25.8851 18.6141C25.9971 18.6653 26.0967 18.74 26.1772 18.8331C26.2579 18.9263 26.3175 19.0358 26.3519 19.1542C26.3864 19.2725 26.3949 19.3969 26.377 19.5188L25.051 28.5754C25.0211 28.7789 24.9191 28.965 24.7634 29.0995C24.6078 29.2341 24.409 29.3081 24.2032 29.3082H13.4795C13.2821 29.3081 13.0907 29.2398 12.9378 29.1148C12.7849 28.9899 12.6799 28.816 12.6404 28.6225L10.7547 19.5651C10.7283 19.4405 10.73 19.3117 10.7597 19.1879C10.7893 19.0641 10.8462 18.9485 10.9261 18.8494C11.0071 18.7508 11.1091 18.6716 11.2246 18.6175C11.3401 18.5633 11.4663 18.5357 11.5938 18.5365ZM24.5367 20.2508H12.6481L14.179 27.5939H23.4592L24.5367 20.2508Z" fill="#707070"/>
<path d="M28.9279 18.5366H42.2513C42.3767 18.5365 42.5005 18.564 42.6141 18.617C42.7277 18.67 42.8283 18.7473 42.9088 18.8434C42.9893 18.9395 43.0478 19.0521 43.0801 19.1732C43.1123 19.2944 43.1177 19.4211 43.0956 19.5446L41.4791 28.602C41.4437 28.8 41.3398 28.9792 41.1856 29.1083C41.0314 29.2374 40.8367 29.3082 40.6356 29.3083H30.2565C30.0508 29.3082 29.8519 29.2341 29.6963 29.0996C29.5407 28.965 29.4386 28.779 29.4088 28.5754L28.0802 19.518C28.0622 19.3961 28.0708 19.2717 28.1052 19.1533C28.1397 19.035 28.1993 18.9255 28.2799 18.8323C28.3604 18.7394 28.4599 18.6649 28.5717 18.6139C28.6836 18.5629 28.805 18.5365 28.9279 18.5366ZM41.2271 20.2508H29.9205L30.9971 27.594H39.9182L41.2271 20.2508Z" fill="#707070"/>
</g>
<defs>
<clipPath id="clip0_155_3344">
<rect width="40.716" height="31.8849" fill="white" transform="translate(3.42871 7.71423)"/>
</clipPath>
</defs>
</svg>
