<svg width="20" height="16" viewBox="0 0 20 16" fill="none" xmlns="http://www.w3.org/2000/svg">
<rect x="0.5" y="2.5" width="16" height="13" rx="1.5" fill="white" stroke="#1160A4"/>
<path d="M0 3C0 2.44772 0.447715 2 1 2H16C16.5523 2 17 2.44772 17 3V6H0V3Z" fill="#1160A4"/>
<path d="M17.5205 11.4229L14.612 10.268C13.866 9.97186 13.0926 10.6309 13.2668 11.4144L13.4042 12.0329C13.436 12.1758 13.436 12.3239 13.4042 12.4668L13.2483 13.1685C13.078 13.9349 13.8169 14.5897 14.5573 14.3284L17.4843 13.2953C18.3558 12.9878 18.3794 11.764 17.5205 11.4229Z" fill="white" stroke="#1160A4"/>
<path d="M13.4524 12.2498H15.8333" stroke="#1160A4" stroke-linecap="round"/>
<path d="M5 1C5 0.447715 4.55228 0 4 0C3.44772 0 3 0.447715 3 1L5 1ZM3 1V3H5V1L3 1Z" fill="#1160A4"/>
<path d="M14 1C14 0.447715 13.5523 0 13 0C12.4477 0 12 0.447715 12 1L14 1ZM12 1V3H14V1L12 1Z" fill="#1160A4"/>
<path d="M6 9.70588L6.95873 11.0805C7.30044 11.5705 7.99266 11.6535 8.44057 11.2583L11 9" stroke="#1160A4" stroke-linecap="round"/>
</svg>
