<svg width="48" height="48" viewBox="0 0 48 48" fill="none" xmlns="http://www.w3.org/2000/svg">
<g clip-path="url(#clip0_155_3472)">
<path d="M12.0472 11.4026L37.2198 19.8823C37.7504 19.8635 38.2669 20.0557 38.6561 20.4169C39.0453 20.778 39.2756 21.2786 39.2966 21.8092V35.3006C39.2759 35.8317 39.0453 36.333 38.6555 36.6944C38.2656 37.0558 37.7484 37.2478 37.2172 37.2283H8.68205C8.43364 37.2328 8.18707 37.1849 7.95838 37.0878C7.72969 36.9907 7.52401 36.8466 7.3547 36.6647C7.1854 36.4829 7.05628 36.2675 6.97573 36.0324C6.89518 35.7974 6.86502 35.548 6.88719 35.3006V21.2434C7.39462 19.8694 11.3212 12.4406 12.0472 11.4026Z" fill="white" stroke="#BA1A1A" stroke-width="3" stroke-linejoin="round"/>
<path d="M43.0121 25.0931C42.9039 25.091 42.7906 25.0878 42.6737 25.0845L42.6535 25.0839C42.4475 25.0778 42.2045 25.0711 41.9591 25.0711C41.9168 25.0711 41.8746 25.0713 41.8323 25.0717L23.3302 24.6926L23.3171 24.6923H23.3039C22.7531 24.6923 22.4414 24.4573 21.5694 23.3745C21.1763 22.8196 15.8786 15.3421 13.6399 12.2032L12.6763 10.852C12.8387 10.7903 13.1479 10.7144 13.6848 10.7144C13.7321 10.7144 13.7802 10.715 13.8294 10.7162L13.8451 10.7166H13.8609H32.5657C33.5192 10.7166 33.7454 10.7791 34.1967 11.4964L34.2015 11.504L34.2063 11.5114L42.8579 24.8494L42.8594 24.8518L42.8609 24.8541C42.9177 24.9409 42.9679 25.0204 43.0121 25.0931Z" fill="#E58787"/>
<path d="M40.6193 23.7608L33.1085 12.181C33.062 12.1071 33.0244 12.0536 32.9958 12.0159C32.9156 12.0089 32.7824 12.0022 32.5657 12.0022H15.0756C17.4444 15.3282 22.0859 21.8793 22.5959 22.5991C22.7801 22.8277 23.138 23.2657 23.32 23.4065L23.3566 23.407L40.6193 23.7608ZM43.2503 26.3814C43.0503 26.3814 42.8373 26.3752 42.6174 26.369C42.3598 26.3613 42.0921 26.3544 41.826 26.3575L23.304 25.9779C22.0843 25.9779 21.4348 25.2597 20.543 24.1496C20.543 24.1496 14.9327 16.23 12.5932 12.9496L5.49861 25.7488C5.20315 26.2819 4.53124 26.4747 3.99741 26.1793C3.46435 25.8838 3.2715 25.2119 3.56773 24.6788L11.3116 10.7083C11.3294 9.96936 12.1273 9.38831 13.8609 9.43078H32.5657C33.7854 9.43078 34.5128 9.58429 35.285 10.8116L43.9366 24.1496C45.2401 26.1402 44.5007 26.3814 43.2503 26.3814Z" fill="#BA1A1A"/>
<path d="M17.1116 36.2314H10.6096V28.4291V28.2791L10.6195 28.1282C10.7496 26.1373 12.1735 24.5778 13.861 24.5778C15.5482 24.5778 16.9718 26.1373 17.102 28.1282L17.1116 28.2758V36.2314Z" fill="#BA1A1A"/>
<path d="M16.6832 35.8029V28.2898L16.6744 28.1561C16.559 26.3899 15.3232 25.0063 13.8611 25.0063C12.3987 25.0063 11.1627 26.3899 11.0473 28.1561L11.0383 28.2931V35.8029H16.6832ZM17.5403 36.66H10.1812V28.1002H10.1919C10.3364 25.8899 11.924 24.1492 13.8611 24.1492C15.7983 24.1492 17.3853 25.8899 17.5298 28.1002H17.5403V36.66Z" fill="#BA1A1A"/>
<path d="M16.6834 20.4694H11.0383C10.5649 20.4694 10.1812 20.8532 10.1812 21.3266V22.5557C10.1812 23.0291 10.5649 23.4128 11.0383 23.4128H16.6834C17.1568 23.4128 17.5406 23.0291 17.5406 22.5557V21.3266C17.5406 20.8532 17.1568 20.4694 16.6834 20.4694Z" fill="white"/>
<path d="M16.6833 20.898H11.0382C10.8015 20.898 10.6096 21.0899 10.6096 21.3266V22.5557C10.6096 22.7924 10.8015 22.9843 11.0382 22.9843H16.6833C16.92 22.9843 17.1119 22.7924 17.1119 22.5557V21.3266C17.1119 21.0899 16.92 20.898 16.6833 20.898Z" stroke="#BA1A1A"/>
</g>
<defs>
<clipPath id="clip0_155_3472">
<rect width="41.1934" height="29.0846" fill="white" transform="translate(3.42871 9.42859)"/>
</clipPath>
</defs>
</svg>
