<svg xmlns="http://www.w3.org/2000/svg" width="47.503" height="48.704" viewBox="0 0 47.503 48.704">
  <g id="グループ_49" data-name="グループ 49" transform="translate(1.501 1.5)">
    <g id="グループ_18" data-name="グループ 18" transform="translate(0 0)">
      <path id="合体_1" data-name="合体 1" d="M12.236,32.041a3.5,3.5,0,0,1-3.5-3.5v-3.25C1.212,23.735,0,15.618,0,15.618s2.24,2.78,8.736,3.871V11.156a3.5,3.5,0,0,1,3.5-3.5h2.109L17.156.629a1,1,0,0,1,1.857,0l2.811,7.026H30.6L33.413.629a1,1,0,0,1,1.857,0l2.811,7.026H41a3.5,3.5,0,0,1,3.5,3.5V28.542a3.5,3.5,0,0,1-3.5,3.5Z" transform="translate(0 0)" fill="#fff"/>
      <path id="合体_1_-_アウトライン" data-name="合体 1 - アウトライン" d="M41,33.541H12.236a5.005,5.005,0,0,1-5-5V26.451a12.086,12.086,0,0,1-7-5.848,15.425,15.425,0,0,1-1.721-4.764A1.512,1.512,0,0,1-.6,14.22a1.476,1.476,0,0,1,1.758.449A7.361,7.361,0,0,0,2.876,15.96a16.5,16.5,0,0,0,4.36,1.689V11.156a5.006,5.006,0,0,1,5-5h1.093L15.763.072a2.5,2.5,0,0,1,4.643,0l2.433,6.082h6.748L32.021.072a2.5,2.5,0,0,1,4.642,0L39.1,6.155H41a5.006,5.006,0,0,1,5,5V28.542A5.005,5.005,0,0,1,41,33.541ZM3,19.382A8.929,8.929,0,0,0,9.04,23.823a1.5,1.5,0,0,1,1.2,1.469v3.25a2,2,0,0,0,2,2H41a2,2,0,0,0,2-2V11.156a2,2,0,0,0-2-2H38.081a1.5,1.5,0,0,1-1.393-.943L34.342,2.347,32,8.213a1.5,1.5,0,0,1-1.393.943H21.823a1.5,1.5,0,0,1-1.393-.943L18.084,2.347,15.738,8.213a1.5,1.5,0,0,1-1.393.943H12.236a2,2,0,0,0-2,2v8.333a1.5,1.5,0,0,1-1.749,1.479A22.986,22.986,0,0,1,3,19.382Z" transform="translate(0 0)" fill="#01619d"/>
      <circle id="楕円形_1" data-name="楕円形 1" cx="1.626" cy="1.626" r="1.626" transform="translate(17.272 14.565)" fill="#01619d"/>
      <path id="楕円形_1_-_アウトライン" data-name="楕円形 1 - アウトライン" d="M1.626,1a.626.626,0,1,0,.626.626A.626.626,0,0,0,1.626,1m0-1A1.626,1.626,0,1,1,0,1.626,1.626,1.626,0,0,1,1.626,0Z" transform="translate(17.272 14.565)" fill="#01619d"/>
      <circle id="楕円形_2" data-name="楕円形 2" cx="1.626" cy="1.626" r="1.626" transform="translate(31.903 14.565)" fill="#01619d"/>
      <path id="楕円形_2_-_アウトライン" data-name="楕円形 2 - アウトライン" d="M1.626,0A1.626,1.626,0,1,1,0,1.626,1.626,1.626,0,0,1,1.626,0Z" transform="translate(31.903 14.565)" fill="#01619d"/>
      <path id="多角形_3" data-name="多角形 3" d="M2.544.707a1,1,0,0,1,1.414,0l.837.837a1,1,0,0,1-.707,1.707H2.414a1,1,0,0,1-.707-1.707Z" transform="translate(29.465 21.068) rotate(180)" fill="#01619d"/>
      <path id="多角形_3_-_アウトライン" data-name="多角形 3 - アウトライン" d="M3.251,1.414l-.837.837H4.089l-.836-.837h0m0-1a1,1,0,0,1,.707.293l.837.837a1,1,0,0,1-.707,1.707H2.414a1,1,0,0,1-.707-1.707L2.544.707A1,1,0,0,1,3.251.414Z" transform="translate(29.465 21.068) rotate(180)" fill="#01619d"/>
      <path id="長方形_12" data-name="長方形 12" d="M0,0H34.953a0,0,0,0,1,0,0V3.5a3,3,0,0,1-3,3H3a3,3,0,0,1-3-3V0A0,0,0,0,1,0,0Z" transform="translate(8.839 25.945)" fill="#6fd1c9"/>
      <path id="長方形_12_-_アウトライン" data-name="長方形 12 - アウトライン" d="M1,1V3.5a2,2,0,0,0,2,2H31.953a2,2,0,0,0,2-2V1H1M0,0H34.953V3.5a3,3,0,0,1-3,3H3a3,3,0,0,1-3-3Z" transform="translate(8.839 25.945)" fill="#01619d"/>
      <g id="グループ_19" data-name="グループ 19" transform="translate(22.658 29.196)">
        <path id="パス_5" data-name="パス 5" d="M3.251,0A3.251,3.251,0,1,1,0,3.251,3.251,3.251,0,0,1,3.251,0Z" fill="#e5dc9b"/>
        <path id="パス_5_-_アウトライン" data-name="パス 5 - アウトライン" d="M3.251,1A2.251,2.251,0,1,0,5.5,3.251,2.254,2.254,0,0,0,3.251,1m0-1A3.251,3.251,0,1,1,0,3.251,3.251,3.251,0,0,1,3.251,0Z" fill="#01619d"/>
        <path id="パス_2" data-name="パス 2" d="M56.624,889.389H51.348v-1h5.276Z" transform="translate(-50.761 -886.541)" fill="#01619d"/>
        <path id="パス_3" data-name="パス 3" d="M55.126,891.816h-1v-2.927h1Z" transform="translate(-51.375 -886.541)" fill="#01619d"/>
        <path id="パス_4" data-name="パス 4" d="M.813,0A.813.813,0,1,1,0,.813.813.813,0,0,1,.813,0Z" transform="translate(2.439 4.877)" fill="#fff"/>
        <path id="パス_4_-_アウトライン" data-name="パス 4 - アウトライン" d="M.813,0A.813.813,0,1,1,0,.813.813.813,0,0,1,.813,0Z" transform="translate(2.439 4.877)" fill="#01619d"/>
      </g>
      <path id="パス_6" data-name="パス 6" d="M0-1H16.257a1,1,0,0,1,.757.346,1,1,0,0,1,.233.8L15.7,10.712a1,1,0,0,1-.989.855H2.2a1,1,0,0,1-.979-.8L-.979.2a1,1,0,0,1,.2-.835A1,1,0,0,1,0-1ZM15.1,1H1.23L3.016,9.567H13.843Z" transform="translate(8.026 12.126)" fill="#6ed1c8"/>
      <path id="パス_7" data-name="パス 7" d="M.878-1H16.422a1,1,0,0,1,.767.358,1,1,0,0,1,.218.818L15.521,10.743a1,1,0,0,1-.984.824H2.428a1,1,0,0,1-.989-.855L-.111.145a1,1,0,0,1,.233-.8A1,1,0,0,1,.878-1ZM15.227,1H2.036L3.292,9.567H13.7Z" transform="translate(27.37 12.126)" fill="#6ed1c8"/>
    </g>
    <path id="パス_25" data-name="パス 25" d="M.688,0V-5.96H2.232l.944,2.576q.088.256.168.532T3.5-2.3h.04q.088-.272.168-.548t.16-.532L4.784-5.96H6.336V0h-1.3V-2.04q0-.3.032-.664t.076-.74q.044-.372.084-.66h-.04l-.5,1.424L3.888-.5H3.1L2.3-2.68,1.816-4.1H1.784q.04.288.08.66t.072.74q.032.368.032.664V0ZM9.656.112a2.436,2.436,0,0,1-1.18-.284,2.1,2.1,0,0,1-.832-.82A2.544,2.544,0,0,1,7.336-2.28a2.6,2.6,0,0,1,.18-.992A2.291,2.291,0,0,1,8-4.024,2.145,2.145,0,0,1,8.7-4.5a2.026,2.026,0,0,1,.8-.164,1.921,1.921,0,0,1,1.088.288,1.767,1.767,0,0,1,.648.784,2.778,2.778,0,0,1,.216,1.12,3.051,3.051,0,0,1-.02.36,1.887,1.887,0,0,1-.044.256H8.712a1.127,1.127,0,0,0,.224.5.966.966,0,0,0,.392.284,1.4,1.4,0,0,0,.52.092,1.61,1.61,0,0,0,.48-.072,2.348,2.348,0,0,0,.48-.216l.472.856a2.811,2.811,0,0,1-.788.384A2.805,2.805,0,0,1,9.656.112Zm-.968-2.9H10.24a.923.923,0,0,0-.164-.56.644.644,0,0,0-.556-.224.819.819,0,0,0-.364.084.793.793,0,0,0-.3.256A1.068,1.068,0,0,0,8.688-2.792ZM13.72.112a2.67,2.67,0,0,1-.92-.176,2.851,2.851,0,0,1-.832-.464l.632-.888a3.075,3.075,0,0,0,.6.356,1.383,1.383,0,0,0,.556.124.686.686,0,0,0,.408-.1.312.312,0,0,0,.128-.264.283.283,0,0,0-.128-.232,1.5,1.5,0,0,0-.336-.18q-.208-.084-.44-.172a3.594,3.594,0,0,1-.54-.28,1.478,1.478,0,0,1-.444-.428,1.108,1.108,0,0,1-.176-.636,1.313,1.313,0,0,1,.22-.756,1.448,1.448,0,0,1,.616-.5,2.214,2.214,0,0,1,.924-.18,2.263,2.263,0,0,1,.936.18,3.367,3.367,0,0,1,.688.4l-.632.848a2.778,2.778,0,0,0-.484-.28,1.137,1.137,0,0,0-.46-.1.627.627,0,0,0-.364.084.283.283,0,0,0-.116.244.27.27,0,0,0,.116.224,1.2,1.2,0,0,0,.316.16q.2.072.432.16a4.014,4.014,0,0,1,.428.188,1.766,1.766,0,0,1,.388.268,1.2,1.2,0,0,1,.28.38,1.237,1.237,0,0,1,.1.532A1.381,1.381,0,0,1,15.4-.62a1.46,1.46,0,0,1-.636.536A2.464,2.464,0,0,1,13.72.112Zm4.08,0a2.67,2.67,0,0,1-.92-.176,2.851,2.851,0,0,1-.832-.464l.632-.888a3.075,3.075,0,0,0,.6.356,1.383,1.383,0,0,0,.556.124.686.686,0,0,0,.408-.1.312.312,0,0,0,.128-.264.283.283,0,0,0-.128-.232,1.5,1.5,0,0,0-.336-.18q-.208-.084-.44-.172a3.594,3.594,0,0,1-.54-.28,1.478,1.478,0,0,1-.444-.428,1.108,1.108,0,0,1-.176-.636,1.313,1.313,0,0,1,.22-.756,1.448,1.448,0,0,1,.616-.5,2.214,2.214,0,0,1,.924-.18,2.263,2.263,0,0,1,.936.18,3.367,3.367,0,0,1,.688.4l-.632.848a2.778,2.778,0,0,0-.484-.28,1.137,1.137,0,0,0-.46-.1.627.627,0,0,0-.364.084.283.283,0,0,0-.116.244.27.27,0,0,0,.116.224,1.2,1.2,0,0,0,.316.16q.2.072.432.16a4.014,4.014,0,0,1,.428.188,1.766,1.766,0,0,1,.388.268,1.2,1.2,0,0,1,.28.38,1.237,1.237,0,0,1,.1.532,1.381,1.381,0,0,1-.216.756,1.46,1.46,0,0,1-.636.536A2.464,2.464,0,0,1,17.8.112Zm3.872,0a1.341,1.341,0,0,1-.72-.188,1.271,1.271,0,0,1-.468-.5,1.48,1.48,0,0,1-.164-.692,1.282,1.282,0,0,1,.6-1.124,4.421,4.421,0,0,1,1.928-.548.8.8,0,0,0-.088-.316.461.461,0,0,0-.22-.2.914.914,0,0,0-.38-.068,1.644,1.644,0,0,0-.56.1,4.343,4.343,0,0,0-.632.3l-.5-.936a4.682,4.682,0,0,1,.62-.316,3.948,3.948,0,0,1,.652-.208,3.109,3.109,0,0,1,.688-.076,2.053,2.053,0,0,1,1,.224,1.461,1.461,0,0,1,.624.684,2.763,2.763,0,0,1,.216,1.172V0h-1.16l-.1-.456h-.04a2.735,2.735,0,0,1-.6.408A1.559,1.559,0,0,1,21.672.112Zm.488-1.1a.717.717,0,0,0,.376-.1,1.393,1.393,0,0,0,.312-.264V-2.08a2.939,2.939,0,0,0-.7.16.879.879,0,0,0-.368.24.466.466,0,0,0-.108.3.342.342,0,0,0,.132.3A.593.593,0,0,0,22.16-.992ZM27,1.912a3.712,3.712,0,0,1-.956-.116,1.522,1.522,0,0,1-.692-.368A.885.885,0,0,1,25.1.768a.864.864,0,0,1,.16-.508,1.255,1.255,0,0,1,.48-.388v-.04a1.054,1.054,0,0,1-.3-.308.869.869,0,0,1-.12-.476.866.866,0,0,1,.144-.468,1.282,1.282,0,0,1,.368-.38v-.032a1.515,1.515,0,0,1-.436-.476,1.331,1.331,0,0,1-.188-.708,1.506,1.506,0,0,1,.272-.92,1.64,1.64,0,0,1,.708-.548,2.4,2.4,0,0,1,.924-.18,2.551,2.551,0,0,1,.384.028,1.72,1.72,0,0,1,.336.084H29.5V-3.52h-.7a1.172,1.172,0,0,1,.084.244,1.3,1.3,0,0,1,.036.308,1.453,1.453,0,0,1-.244.868,1.419,1.419,0,0,1-.656.5,2.511,2.511,0,0,1-.916.16,1.717,1.717,0,0,1-.248-.02,2.651,2.651,0,0,1-.288-.06.648.648,0,0,0-.108.136.381.381,0,0,0-.036.184.243.243,0,0,0,.152.228A1.263,1.263,0,0,0,27.1-.9h.72a2.54,2.54,0,0,1,1.3.276.961.961,0,0,1,.46.892,1.263,1.263,0,0,1-.316.848,2.1,2.1,0,0,1-.9.58A4,4,0,0,1,27,1.912ZM27.112-2.3a.567.567,0,0,0,.3-.08.544.544,0,0,0,.208-.24.931.931,0,0,0,.076-.4A.856.856,0,0,0,27.62-3.4a.552.552,0,0,0-.208-.232.567.567,0,0,0-.3-.08.553.553,0,0,0-.292.08.552.552,0,0,0-.208.232.856.856,0,0,0-.076.384.931.931,0,0,0,.076.4.544.544,0,0,0,.208.24A.553.553,0,0,0,27.112-2.3Zm.112,3.32A1.754,1.754,0,0,0,27.74.956a.948.948,0,0,0,.348-.18A.333.333,0,0,0,28.216.52a.253.253,0,0,0-.172-.268,1.564,1.564,0,0,0-.492-.06H27.12q-.248,0-.392-.012a1.342,1.342,0,0,1-.256-.044.73.73,0,0,0-.156.2.453.453,0,0,0-.052.212.385.385,0,0,0,.264.36A1.7,1.7,0,0,0,27.224,1.024Zm4.9-.912a2.436,2.436,0,0,1-1.18-.284,2.1,2.1,0,0,1-.832-.82,2.544,2.544,0,0,1-.308-1.288,2.6,2.6,0,0,1,.18-.992,2.291,2.291,0,0,1,.488-.752,2.145,2.145,0,0,1,.7-.476,2.026,2.026,0,0,1,.8-.164,1.921,1.921,0,0,1,1.088.288,1.767,1.767,0,0,1,.648.784,2.778,2.778,0,0,1,.216,1.12,3.051,3.051,0,0,1-.02.36,1.887,1.887,0,0,1-.044.256H31.184a1.127,1.127,0,0,0,.224.5.966.966,0,0,0,.392.284,1.4,1.4,0,0,0,.52.092,1.61,1.61,0,0,0,.48-.072,2.348,2.348,0,0,0,.48-.216l.472.856a2.811,2.811,0,0,1-.788.384A2.805,2.805,0,0,1,32.128.112Zm-.968-2.9h1.552a.923.923,0,0,0-.164-.56.644.644,0,0,0-.556-.224.819.819,0,0,0-.364.084.793.793,0,0,0-.3.256A1.068,1.068,0,0,0,31.16-2.792Z" transform="translate(10.16 45.292)" fill="#01619d"/>
  </g>
</svg>
