<svg xmlns="http://www.w3.org/2000/svg" width="47.503" height="48.752" viewBox="0 0 47.503 48.752">
  <g id="グループ_49" data-name="グループ 49" transform="translate(-82.34 -856.208)">
    <g id="グループ_18" data-name="グループ 18" transform="translate(63.088 7.699)">
      <path id="合体_1" data-name="合体 1" d="M12.236,32.358a3.5,3.5,0,0,1-3.5-3.5V25.609C1.212,24.052,0,15.935,0,15.935s2.24,2.78,8.736,3.871V11.472a3.5,3.5,0,0,1,3.5-3.5h2.109L17.156.945a1,1,0,0,1,1.857,0l2.811,7.027H30.6L33.413.945a1,1,0,0,1,1.857,0l2.811,7.027H41a3.5,3.5,0,0,1,3.5,3.5V28.858a3.5,3.5,0,0,1-3.5,3.5Z" transform="translate(20.752 849.693)" fill="#fff"/>
      <path id="合体_1_-_アウトライン" data-name="合体 1 - アウトライン" d="M41,33.858H12.236a5.006,5.006,0,0,1-5-5v-2.09a12.086,12.086,0,0,1-7-5.848,15.425,15.425,0,0,1-1.721-4.764A1.512,1.512,0,0,1-.6,14.536a1.476,1.476,0,0,1,1.758.449,7.361,7.361,0,0,0,1.715,1.292,16.5,16.5,0,0,0,4.36,1.689V11.472a5.006,5.006,0,0,1,5-5h1.093L15.763.388a2.5,2.5,0,0,1,4.642,0l2.434,6.084h6.748L32.021.388a2.5,2.5,0,0,1,4.642,0L39.1,6.472H41a5.006,5.006,0,0,1,5,5V28.858A5.006,5.006,0,0,1,41,33.858ZM3,19.7A8.929,8.929,0,0,0,9.04,24.14a1.5,1.5,0,0,1,1.2,1.469v3.249a2,2,0,0,0,2,2H41a2,2,0,0,0,2-2V11.472a2,2,0,0,0-2-2H38.081a1.5,1.5,0,0,1-1.393-.943L34.342,2.663,32,8.529a1.5,1.5,0,0,1-1.393.943H21.823a1.5,1.5,0,0,1-1.393-.943L18.084,2.663,15.738,8.529a1.5,1.5,0,0,1-1.393.943H12.236a2,2,0,0,0-2,2v8.333a1.5,1.5,0,0,1-1.749,1.479A22.986,22.986,0,0,1,3,19.7Z" transform="translate(20.752 849.693)" fill="#707070"/>
      <circle id="楕円形_1" data-name="楕円形 1" cx="1.626" cy="1.626" r="1.626" transform="translate(38.024 864.574)" fill="#707070"/>
      <path id="楕円形_1_-_アウトライン" data-name="楕円形 1 - アウトライン" d="M1.626,1a.626.626,0,1,0,.626.626A.626.626,0,0,0,1.626,1m0-1A1.626,1.626,0,1,1,0,1.626,1.626,1.626,0,0,1,1.626,0Z" transform="translate(38.024 864.574)" fill="#707070"/>
      <circle id="楕円形_2" data-name="楕円形 2" cx="1.626" cy="1.626" r="1.626" transform="translate(52.655 864.574)" fill="#707070"/>
      <path id="楕円形_2_-_アウトライン" data-name="楕円形 2 - アウトライン" d="M1.626,0A1.626,1.626,0,1,1,0,1.626,1.626,1.626,0,0,1,1.626,0Z" transform="translate(52.655 864.574)" fill="#707070"/>
      <path id="多角形_3" data-name="多角形 3" d="M2.544.707a1,1,0,0,1,1.414,0l.837.837a1,1,0,0,1-.707,1.707H2.414a1,1,0,0,1-.707-1.707Z" transform="translate(50.217 871.077) rotate(180)" fill="#707070"/>
      <path id="多角形_3_-_アウトライン" data-name="多角形 3 - アウトライン" d="M3.251,1.414l-.837.837H4.089l-.836-.837h0m0-1a1,1,0,0,1,.707.293l.837.837a1,1,0,0,1-.707,1.707H2.414a1,1,0,0,1-.707-1.707L2.544.707A1,1,0,0,1,3.251.414Z" transform="translate(50.217 871.077) rotate(180)" fill="#707070"/>
      <path id="パス_19" data-name="パス 19" d="M0,0H34.953V3.5a3,3,0,0,1-3,3H3a3,3,0,0,1-3-3Z" transform="translate(29.591 875.954)" fill="#707070"/>
      <path id="パス_19_-_アウトライン" data-name="パス 19 - アウトライン" d="M1,1V3.5a2,2,0,0,0,2,2H31.953a2,2,0,0,0,2-2V1H1M0,0H34.953V3.5a3,3,0,0,1-3,3H3a3,3,0,0,1-3-3Z" transform="translate(29.591 875.954)" fill="#707070"/>
      <g id="グループ_19" data-name="グループ 19" transform="translate(43.41 879.205)">
        <path id="パス_5" data-name="パス 5" d="M3.251,0A3.251,3.251,0,1,1,0,3.251,3.251,3.251,0,0,1,3.251,0Z" fill="#fff"/>
        <path id="パス_5_-_アウトライン" data-name="パス 5 - アウトライン" d="M3.251,1A2.251,2.251,0,1,0,5.5,3.251,2.254,2.254,0,0,0,3.251,1m0-1A3.251,3.251,0,1,1,0,3.251,3.251,3.251,0,0,1,3.251,0Z" fill="#707070"/>
        <path id="パス_2" data-name="パス 2" d="M56.624,889.389H51.348v-1h5.276Z" transform="translate(-50.761 -886.541)" fill="#707070"/>
        <path id="パス_3" data-name="パス 3" d="M55.126,891.816h-1v-2.927h1Z" transform="translate(-51.375 -886.541)" fill="#707070"/>
        <path id="パス_4" data-name="パス 4" d="M.813,0A.813.813,0,1,1,0,.813.813.813,0,0,1,.813,0Z" transform="translate(2.439 4.877)" fill="#fff"/>
        <path id="パス_4_-_アウトライン" data-name="パス 4 - アウトライン" d="M.813,0A.813.813,0,1,1,0,.813.813.813,0,0,1,.813,0Z" transform="translate(2.439 4.877)" fill="#707070"/>
      </g>
      <path id="パス_6" data-name="パス 6" d="M0-1H16.257a1,1,0,0,1,.757.346,1,1,0,0,1,.233.8L15.7,10.712a1,1,0,0,1-.989.855H2.2a1,1,0,0,1-.979-.8L-.979.2a1,1,0,0,1,.2-.835A1,1,0,0,1,0-1ZM15.1,1H1.23L3.016,9.567H13.843Z" transform="translate(28.778 862.135)" fill="#707070"/>
      <path id="パス_7" data-name="パス 7" d="M.878-1H16.422a1,1,0,0,1,.767.358,1,1,0,0,1,.218.818L15.521,10.743a1,1,0,0,1-.984.824H2.428a1,1,0,0,1-.989-.855L-.111.145a1,1,0,0,1,.233-.8A1,1,0,0,1,.878-1ZM15.227,1H2.036L3.292,9.567H13.7Z" transform="translate(48.123 862.135)" fill="#707070"/>
    </g>
    <path id="パス_28" data-name="パス 28" d="M.752,0V-5.912H1.944l1.04,2.888q.1.272.192.568t.184.584H3.4q.1-.288.188-.584t.18-.568L4.792-5.912H5.984V0H5.016V-2.688q0-.28.024-.612T5.1-3.968q.032-.336.056-.608H5.12L4.64-3.2,3.672-.552H3.04L2.072-3.2,1.6-4.576H1.568q.032.272.06.608T1.68-3.3q.024.332.024.612V0ZM9.3.112a2.222,2.222,0,0,1-1.112-.28,2.048,2.048,0,0,1-.788-.8A2.511,2.511,0,0,1,7.1-2.216a2.589,2.589,0,0,1,.172-.972,2.307,2.307,0,0,1,.464-.736A2.02,2.02,0,0,1,8.4-4.392a1.86,1.86,0,0,1,.756-.16,1.8,1.8,0,0,1,1.008.268,1.663,1.663,0,0,1,.616.744,2.725,2.725,0,0,1,.208,1.1q0,.152-.012.284a1.3,1.3,0,0,1-.036.22H8.128a1.482,1.482,0,0,0,.216.664,1.218,1.218,0,0,0,.452.42A1.325,1.325,0,0,0,9.432-.7,1.635,1.635,0,0,0,9.96-.788a2.463,2.463,0,0,0,.5-.236l.36.656a3.086,3.086,0,0,1-.7.344A2.472,2.472,0,0,1,9.3.112ZM8.112-2.648h1.976a1.246,1.246,0,0,0-.232-.8.826.826,0,0,0-.688-.292.961.961,0,0,0-.472.124,1.074,1.074,0,0,0-.38.364A1.438,1.438,0,0,0,8.112-2.648ZM13.224.112a2.455,2.455,0,0,1-.9-.176,2.82,2.82,0,0,1-.776-.448l.48-.672a2.986,2.986,0,0,0,.592.368,1.5,1.5,0,0,0,.632.136.8.8,0,0,0,.536-.152.486.486,0,0,0,.176-.384.4.4,0,0,0-.14-.308,1.359,1.359,0,0,0-.36-.22q-.22-.1-.452-.184A4.247,4.247,0,0,1,12.44-2.2a1.49,1.49,0,0,1-.464-.408,1,1,0,0,1-.184-.616,1.223,1.223,0,0,1,.2-.684,1.326,1.326,0,0,1,.56-.472,2,2,0,0,1,.86-.172,2.1,2.1,0,0,1,.836.16,2.653,2.653,0,0,1,.636.376l-.48.64a2.683,2.683,0,0,0-.472-.276,1.2,1.2,0,0,0-.5-.108.739.739,0,0,0-.5.14.444.444,0,0,0-.16.348.37.37,0,0,0,.124.288,1.114,1.114,0,0,0,.332.2q.208.084.448.172t.456.192a1.881,1.881,0,0,1,.408.256,1.123,1.123,0,0,1,.292.368,1.172,1.172,0,0,1,.108.528,1.3,1.3,0,0,1-.2.7,1.343,1.343,0,0,1-.58.5A2.174,2.174,0,0,1,13.224.112Zm3.9,0a2.455,2.455,0,0,1-.9-.176,2.82,2.82,0,0,1-.776-.448l.48-.672a2.986,2.986,0,0,0,.592.368,1.5,1.5,0,0,0,.632.136.8.8,0,0,0,.536-.152.486.486,0,0,0,.176-.384.4.4,0,0,0-.14-.308,1.359,1.359,0,0,0-.36-.22q-.22-.1-.452-.184a4.247,4.247,0,0,1-.568-.272,1.49,1.49,0,0,1-.464-.408,1,1,0,0,1-.184-.616,1.223,1.223,0,0,1,.2-.684,1.326,1.326,0,0,1,.56-.472,2,2,0,0,1,.86-.172,2.1,2.1,0,0,1,.836.16,2.653,2.653,0,0,1,.636.376l-.48.64a2.683,2.683,0,0,0-.472-.276,1.2,1.2,0,0,0-.5-.108.739.739,0,0,0-.5.14.444.444,0,0,0-.16.348.37.37,0,0,0,.124.288,1.114,1.114,0,0,0,.332.2q.208.084.448.172t.456.192a1.881,1.881,0,0,1,.408.256,1.123,1.123,0,0,1,.292.368,1.172,1.172,0,0,1,.108.528,1.3,1.3,0,0,1-.2.7,1.343,1.343,0,0,1-.58.5A2.174,2.174,0,0,1,17.12.112Zm3.728,0a1.348,1.348,0,0,1-.684-.168,1.229,1.229,0,0,1-.46-.46,1.331,1.331,0,0,1-.168-.676A1.232,1.232,0,0,1,20.16-2.3a4.952,4.952,0,0,1,1.984-.54,1.321,1.321,0,0,0-.084-.436.651.651,0,0,0-.248-.312.827.827,0,0,0-.468-.116,1.691,1.691,0,0,0-.648.128,4.094,4.094,0,0,0-.608.312l-.376-.7a5.258,5.258,0,0,1,.532-.284,3.557,3.557,0,0,1,.608-.216,2.683,2.683,0,0,1,.676-.084,1.759,1.759,0,0,1,.928.224,1.374,1.374,0,0,1,.552.652,2.641,2.641,0,0,1,.184,1.044V0h-.856l-.08-.488h-.032a3.416,3.416,0,0,1-.64.424A1.593,1.593,0,0,1,20.848.112Zm.336-.832a1.014,1.014,0,0,0,.492-.124,2.328,2.328,0,0,0,.468-.348v-.992a4.423,4.423,0,0,0-.952.2,1.142,1.142,0,0,0-.5.308.62.62,0,0,0-.148.4.484.484,0,0,0,.18.424A.775.775,0,0,0,21.184-.72Zm4.8,2.68a3.249,3.249,0,0,1-.948-.128,1.469,1.469,0,0,1-.66-.384.9.9,0,0,1-.24-.64A.922.922,0,0,1,24.3.284a1.368,1.368,0,0,1,.476-.42v-.04a.99.99,0,0,1-.284-.292.819.819,0,0,1-.116-.452.836.836,0,0,1,.148-.476,1.2,1.2,0,0,1,.348-.348v-.032a1.69,1.69,0,0,1-.416-.48,1.317,1.317,0,0,1-.184-.7,1.5,1.5,0,0,1,.248-.872,1.568,1.568,0,0,1,.648-.544,2.024,2.024,0,0,1,.856-.184,1.97,1.97,0,0,1,.368.032,1.814,1.814,0,0,1,.3.08H28.28v.776h-.8a1.069,1.069,0,0,1,.172.32,1.263,1.263,0,0,1,.068.424,1.472,1.472,0,0,1-.224.828,1.389,1.389,0,0,1-.612.512,2.1,2.1,0,0,1-.86.172,1.62,1.62,0,0,1-.284-.028,1.819,1.819,0,0,1-.308-.084.741.741,0,0,0-.156.176.462.462,0,0,0-.06.248.331.331,0,0,0,.156.284,1.053,1.053,0,0,0,.564.108h.792a2.3,2.3,0,0,1,1.208.26.912.912,0,0,1,.416.836,1.234,1.234,0,0,1-.288.8,1.927,1.927,0,0,1-.824.564A3.463,3.463,0,0,1,25.984,1.96Zm.04-4.024a.735.735,0,0,0,.392-.108.772.772,0,0,0,.28-.3,1,1,0,0,0,.1-.476,1,1,0,0,0-.1-.476.725.725,0,0,0-.276-.3.773.773,0,0,0-.4-.1.742.742,0,0,0-.38.1.73.73,0,0,0-.276.292,1,1,0,0,0-.1.48,1,1,0,0,0,.1.476.783.783,0,0,0,.276.3A.7.7,0,0,0,26.024-2.064Zm.112,3.344a1.82,1.82,0,0,0,.636-.1,1.06,1.06,0,0,0,.416-.26.508.508,0,0,0,.148-.352.354.354,0,0,0-.2-.356A1.423,1.423,0,0,0,26.56.12h-.608q-.176,0-.324-.012a1.707,1.707,0,0,1-.276-.044.835.835,0,0,0-.256.28.648.648,0,0,0-.08.3.514.514,0,0,0,.3.464A1.69,1.69,0,0,0,26.136,1.28ZM30.856.112a2.222,2.222,0,0,1-1.112-.28,2.048,2.048,0,0,1-.788-.8,2.511,2.511,0,0,1-.292-1.248,2.589,2.589,0,0,1,.172-.972,2.307,2.307,0,0,1,.464-.736,2.02,2.02,0,0,1,.656-.468,1.86,1.86,0,0,1,.756-.16,1.8,1.8,0,0,1,1.008.268,1.663,1.663,0,0,1,.616.744,2.725,2.725,0,0,1,.208,1.1q0,.152-.012.284a1.3,1.3,0,0,1-.036.22H29.688a1.482,1.482,0,0,0,.216.664,1.218,1.218,0,0,0,.452.42,1.325,1.325,0,0,0,.636.148,1.635,1.635,0,0,0,.528-.084,2.463,2.463,0,0,0,.5-.236l.36.656a3.086,3.086,0,0,1-.7.344A2.472,2.472,0,0,1,30.856.112Zm-1.184-2.76h1.976a1.246,1.246,0,0,0-.232-.8.826.826,0,0,0-.688-.292.961.961,0,0,0-.472.124,1.074,1.074,0,0,0-.38.364A1.438,1.438,0,0,0,29.672-2.648Z" transform="translate(94 903)" fill="#707070"/>
  </g>
</svg>
