<svg width="24" height="24" viewBox="0 0 24 24" fill="none" xmlns="http://www.w3.org/2000/svg">
<g clip-path="url(#clip0_12_390)">
<path d="M12 2C17.5228 2 22 6.47715 22 12C22 17.5228 17.5228 22 12 22C6.47715 22 2 17.5228 2 12C2 6.47715 6.47715 2 12 2ZM12 4C7.58172 4 4 7.58172 4 12C4 16.4183 7.58172 20 12 20C16.4183 20 20 16.4183 20 12C20 7.58172 16.4183 4 12 4ZM15.1667 12C16.1792 12 17 12.8208 17 13.8333V14C17 16.7614 14.7614 19 12 19C9.23858 19 7 16.7614 7 14V13.8333C7 12.8208 7.82081 12 8.83333 12H15.1667ZM15 14H9C9 15.6569 10.3431 17 12 17C13.6569 17 15 15.6569 15 14ZM9 7C9.51283 7 9.93551 7.38604 9.99327 7.88338L10 8V10C10 10.5523 9.55228 11 9 11C8.48717 11 8.06449 10.614 8.00673 10.1166L8 10V8C8 7.44772 8.44772 7 9 7ZM14.2929 7.29289C14.6834 6.90237 15.3166 6.90237 15.7071 7.29289C16.0676 7.65338 16.0953 8.22061 15.7903 8.6129L15.7071 8.70711L15.4142 9L15.7071 9.29289C16.0976 9.68342 16.0976 10.3166 15.7071 10.7071C15.3466 11.0676 14.7794 11.0953 14.3871 10.7903L14.2929 10.7071L13.2929 9.70711C12.9324 9.34662 12.9047 8.77939 13.2097 8.3871L13.2929 8.29289L14.2929 7.29289Z" fill="white"/>
</g>
<defs>
<clipPath id="clip0_12_390">
<rect width="24" height="24" fill="white"/>
</clipPath>
</defs>
</svg>
